<svg xmlns="http://www.w3.org/2000/svg" viewBox="0 0 158.49 81.03"><defs><style>.cls-1{fill:#fff;}.cls-2{fill:#33413e;}.cls-3{fill:#a6d0e4;}</style></defs><g id="Layer_2" data-name="Layer 2"><g id="Layer_1-2" data-name="Layer 1"><path class="cls-1" d="M156.76,26.87l-7.91,0c-1.48,0-1.61,1.62-1.5,2.74-.25,2.76,8.08,1.05,9.43,1.48C158.91,31.14,158.9,26.84,156.76,26.87Z"/><path class="cls-2" d="M156.76,26.9c-1.92,0-3.83.05-5.75.1l-1.44,0a3.44,3.44,0,0,0-1.35.15,1.48,1.48,0,0,0-.66,1.07,4.9,4.9,0,0,0,0,1.38v0h0c-.08.8.86,1.15,1.64,1.26a13.06,13.06,0,0,0,2.51.1c.84,0,1.69-.08,2.54-.14a10.57,10.57,0,0,1,2.63,0h-.06a1.21,1.21,0,0,0,1.07-.58,2.51,2.51,0,0,0,.41-1.33,2.56,2.56,0,0,0-.32-1.38A1.34,1.34,0,0,0,156.76,26.9Zm0,0a1.42,1.42,0,0,1,1.28.7,3,3,0,0,1,.11,3,1.56,1.56,0,0,1-1.38.84h-.06a15.87,15.87,0,0,0-2.47,0c-.85.05-1.7.12-2.56.12a14.28,14.28,0,0,1-2.6-.18,3.54,3.54,0,0,1-1.26-.45,1.27,1.27,0,0,1-.64-1.24v0a5.28,5.28,0,0,1,.06-1.48,1.77,1.77,0,0,1,.85-1.25,3.5,3.5,0,0,1,1.48-.16l1.44,0C152.93,26.83,154.84,26.87,156.76,26.85Z"/><path class="cls-1" d="M135.29,28.35c-.82,4.16,4.5,2.37,6.73,2.72l.06,17.24c-3.85,2.35-.53,8.56,3.59,6.61a3.79,3.79,0,0,0,.66-6.5c-.61-1.6,1.48-22.69-1.62-21.61C143.36,27.25,135,25.59,135.29,28.35Zm10.47,22.52A1.64,1.64,0,0,1,142.68,52,1.64,1.64,0,0,1,145.76,50.87Z"/><path class="cls-2" d="M135.32,28.36a2.42,2.42,0,0,0,.35,2.05,2.88,2.88,0,0,0,2,.69,17.48,17.48,0,0,0,2.17-.07,11.54,11.54,0,0,1,2.2,0h.06v.06l.14,17.24v.08l-.07,0a3.58,3.58,0,0,0-1.43,1.72,3.4,3.4,0,0,0,0,2.25,3.66,3.66,0,0,0,3.31,2.68,4,4,0,0,0,2.14-.69,3.37,3.37,0,0,0,1.3-1.79,3.55,3.55,0,0,0-1.29-4l-.07,0V48.5a9.16,9.16,0,0,1-.15-2.11l0-2,.12-4.07c.07-2.71.13-5.42.05-8.12a19.69,19.69,0,0,0-.45-4c-.16-.59-.44-1.39-1-1.17a9.05,9.05,0,0,1-2.08,0c-1.35-.09-2.71-.18-4.06-.17a8.41,8.41,0,0,0-2,.23,2.31,2.31,0,0,0-.88.42A1,1,0,0,0,135.32,28.36Zm0,0a1.06,1.06,0,0,1,.35-.94,2.28,2.28,0,0,1,.91-.48,8.75,8.75,0,0,1,2-.31c1.36-.07,2.72,0,4.08.08a9.28,9.28,0,0,0,2,0,1,1,0,0,1,.6,0,.61.61,0,0,1,.26.18.79.79,0,0,1,.19.22,3.23,3.23,0,0,1,.42,1,20.28,20.28,0,0,1,.53,4.08c.15,2.72.08,5.44,0,8.16l-.13,4.07-.05,2a10.89,10.89,0,0,0,.1,1.94l-.09-.11a4,4,0,0,1,1.42,4.52,3.8,3.8,0,0,1-1.47,2,4.62,4.62,0,0,1-2.36.74,4.06,4.06,0,0,1-3.64-3,3.81,3.81,0,0,1,0-2.45A3.91,3.91,0,0,1,142,48.18l-.07.13,0-17.24.06.07a11.25,11.25,0,0,0-2.17,0,17.79,17.79,0,0,1-2.19,0,2.89,2.89,0,0,1-2-.73A2.5,2.5,0,0,1,135.27,28.35Z"/><path class="cls-2" d="M145.78,50.86a1.69,1.69,0,0,1,0,1.27,1.8,1.8,0,0,1-1,.92,1.88,1.88,0,0,1-1.36,0,1.75,1.75,0,0,1-1-1,1.78,1.78,0,0,1,0-1.43,1.85,1.85,0,0,1,1.08-.94,1.73,1.73,0,0,1,1.39.12A1.81,1.81,0,0,1,145.78,50.86Zm-.05,0a1.27,1.27,0,0,0-.86-.8,1.72,1.72,0,0,0-1.12.1,1.38,1.38,0,0,0-.88,1.76,1.35,1.35,0,0,0,.71.84,1.57,1.57,0,0,0,1.15,0,1.69,1.69,0,0,0,.94-.72A1.37,1.37,0,0,0,145.73,50.87Z"/><path class="cls-1" d="M26.82,41.9V39.63C34.91,38,25.65,27.56,38.46,27.29c1.92,4.88-5.93,2.31-4.84,7.47.37,2.55.19,5-3.43,5.87,7.42,2.76-.81,9.35,8.34,10.66v2.9C24.55,53.44,35.38,43.54,26.82,41.9Z"/><path class="cls-2" d="M26.8,41.92l0-2.29v0h0A5.63,5.63,0,0,0,29,38.66a3.78,3.78,0,0,0,1.3-1.95,46.77,46.77,0,0,0,.63-4.79,5.57,5.57,0,0,1,.87-2.28,4.75,4.75,0,0,1,1.88-1.56,12.24,12.24,0,0,1,4.77-.92h.1l0,.08a2.93,2.93,0,0,1,.1,2.29,3.39,3.39,0,0,1-1.85,1.36,12,12,0,0,0-2,.92,2.26,2.26,0,0,0-1.09,1.7,14.4,14.4,0,0,0,.18,2.21A6.14,6.14,0,0,1,33.71,38a3.63,3.63,0,0,1-1.35,1.89,6.27,6.27,0,0,1-2.12.93l0-.39a5.78,5.78,0,0,1,3.07,2.35A7.79,7.79,0,0,1,34,46.6a3.86,3.86,0,0,0,1.18,3.24A8,8,0,0,0,38.57,51l.21.05v3.37l-.26,0a15.34,15.34,0,0,1-4.86-1A5.55,5.55,0,0,1,31.6,52a4.68,4.68,0,0,1-1-2.31c-.27-1.65,0-3.31-.32-4.88a3.21,3.21,0,0,0-1.25-2A6,6,0,0,0,26.8,41.92Zm0,0a6,6,0,0,1,2.28.84,3.51,3.51,0,0,1,1.4,2c.4,1.64.11,3.31.41,4.88a4.31,4.31,0,0,0,.95,2.13,5.09,5.09,0,0,0,1.94,1.31,15,15,0,0,0,4.73.86l-.27.25v-2.9l.22.25a8.5,8.5,0,0,1-3.67-1.31,5.43,5.43,0,0,1-.69-.75,3.57,3.57,0,0,1-.43-.93,6.83,6.83,0,0,1-.24-1.94A7.34,7.34,0,0,0,32.94,43a5.38,5.38,0,0,0-2.82-2.18l-.58-.24.6-.15a5.86,5.86,0,0,0,2-.84,3.27,3.27,0,0,0,1.23-1.69,6,6,0,0,0,.19-2.16c0-.37-.07-.72-.12-1.1a3.82,3.82,0,0,1,0-1.17,2.57,2.57,0,0,1,1.25-1.93,12.38,12.38,0,0,1,2.08-.93,3.12,3.12,0,0,0,1.71-1.21,2.69,2.69,0,0,0-.1-2.06l.13.09a12,12,0,0,0-4.68.86A4.36,4.36,0,0,0,32,29.76,5.5,5.5,0,0,0,31.1,32a46,46,0,0,1-.68,4.79,3.88,3.88,0,0,1-1.36,2,5.74,5.74,0,0,1-2.24.93l0,0Z"/><path class="cls-1" d="M39.85,54.21v-2.7c6.65-1.41,9.73-.44,8.75-8.6H41.81V40h10C52.36,51.14,52.26,54,39.85,54.21Z"/><path class="cls-2" d="M39.84,54.22l0-2.71v0h0c1.21-.25,2.43-.47,3.65-.69A10.67,10.67,0,0,0,47,49.69a3.86,3.86,0,0,0,1.62-3.09,19.75,19.75,0,0,0-.15-3.68l.14.13-6.79,0h-.17V39.81h.18l10-.06h.24V40c.09,1.92.19,3.84.15,5.77a9.9,9.9,0,0,1-1.41,5.63,5.86,5.86,0,0,1-2.37,1.76c-.45.19-.92.32-1.39.47l-1.42.29A38.48,38.48,0,0,1,39.84,54.22Zm0,0a51.64,51.64,0,0,0,5.7-.56,7.46,7.46,0,0,0,4.89-2.48c1-1.54,1.18-3.52,1.25-5.4s-.06-3.82-.14-5.74l.24.23-10-.06L42,40v2.91l-.18-.17,6.79,0h.12v.12a19.45,19.45,0,0,1,.11,3.74,4.07,4.07,0,0,1-1.75,3.22,11.22,11.22,0,0,1-3.57,1.06c-1.22.2-2.44.4-3.66.64l0,0Z"/><path class="cls-1" d="M52,35.32H48.77c-.7-4.4-4.6-5.06-9.07-5.13v-3C45.34,27,52.35,28.17,52,35.32Z"/><path class="cls-2" d="M52,35.34l-3.23,0h-.05v-.06a5.69,5.69,0,0,0-1.09-2.59,5.36,5.36,0,0,0-2.29-1.6,16.69,16.69,0,0,0-5.64-.77h-.17v-.17l0-3V27h.2a24.38,24.38,0,0,1,4.27.1,13.65,13.65,0,0,1,4.15,1.11,6.83,6.83,0,0,1,3.17,2.91A7.48,7.48,0,0,1,52,35.34Zm0,0a8,8,0,0,0-1-4,6.52,6.52,0,0,0-3.08-2.62,13.38,13.38,0,0,0-4-1.07,25.46,25.46,0,0,0-4.19-.18l.19-.21,0,3L39.7,30a16.91,16.91,0,0,1,5.72.9,5.55,5.55,0,0,1,2.35,1.71,5.93,5.93,0,0,1,1.06,2.69l-.06-.05Z"/><path class="cls-1" d="M60.5,47c.14-.69.8.08,1-.59a20,20,0,0,1,1-2.28c.06-.24-1.34.1-1.27-.14l1.44.37C58.3,45.06,66,32.5,64.8,30.15A24.36,24.36,0,0,0,63,26.7c-3.46,9.35-6.9,18.68-10.38,28.08C62.78,55.33,56.84,53.21,60.5,47Z"/><path class="cls-2" d="M60.48,47c0-.14.14-.34.32-.33a2.45,2.45,0,0,0,.47,0c.15,0,.2-.2.26-.35l.2-.44.76-1.76h0a.58.58,0,0,0-.25,0l-.33,0-.35,0h-.18s-.17,0-.16-.16l.05.07h0s0-.06,0-.08,0,0,0,0h.07l.09,0,.18,0,.36.09.36.09.18,0,.09,0,0,0h0l0,0s0,.09,0,.09h0a1.23,1.23,0,0,1-1.19-.33,1.92,1.92,0,0,1-.26-1.23,11.6,11.6,0,0,1,.5-2.41c.48-1.57,1.08-3.1,1.65-4.63a22.33,22.33,0,0,0,1.36-4.66,1.76,1.76,0,0,0-.2-1.11c-.19-.36-.38-.73-.54-1.11a11,11,0,0,0-1.15-2.13l.29,0L58.06,40.82l-2.58,7q-1.27,3.51-2.63,7l-.18-.29c1.13.07,2.27.13,3.39.1a8.19,8.19,0,0,0,1.66-.19,1.36,1.36,0,0,0,1.11-1A9,9,0,0,0,59,51.85,9.68,9.68,0,0,1,60.48,47Zm.05,0a10.86,10.86,0,0,0-1.16,3.18,11.92,11.92,0,0,0-.15,1.69,9.33,9.33,0,0,1-.12,1.73,1.65,1.65,0,0,1-1.29,1.19,8,8,0,0,1-1.73.24c-1.15.06-2.3,0-3.44,0h-.28l.1-.27c.83-2.35,1.68-4.7,2.55-7l2.61-7,5.26-14,.11-.3.18.27a11.15,11.15,0,0,1,1.15,2.19c.16.37.33.74.52,1.1a2,2,0,0,1,.22,1.26,21.64,21.64,0,0,1-1.42,4.72c-.58,1.53-1.2,3-1.69,4.6a10.37,10.37,0,0,0-.52,2.37A1.77,1.77,0,0,0,61.64,44a1.11,1.11,0,0,0,1.06.29h0s-.05.07,0,.09l0,0H62.6l-.09,0-.18-.05L62,44.21l-.36-.09-.18,0-.09,0h-.08l0,0s0-.08,0-.08h0l.06.07a.69.69,0,0,0,.24,0l.34,0,.34,0h.18s.17,0,.16.15h0l-.79,1.74-.19.44c-.06.13-.13.32-.31.38a1.93,1.93,0,0,1-.48,0C60.65,46.69,60.56,46.83,60.53,47Z"/><path class="cls-1" d="M55.75,47.37s.85-2.61,1-3.12c3.06-.92,6.79-.26,10.11-.47-1.25-2.06-2.51-5.33-5.62-9.69-.85-2.19,1.41-4.72,1.8-7.08,4.76,7.43,8.31,18.62,12.64,27.34-6,.5-5.71.53-7.72-5-.2-.49-.41-.77-1-.75-3.94.14-7.82.18-11.78.29"/><path class="cls-2" d="M55.73,47.36l1-3.12v0h0a16.45,16.45,0,0,1,5-.53c1.7,0,3.39.11,5.07,0l-.07.13c-1-1.61-1.73-3.31-2.65-4.93a49.47,49.47,0,0,0-3-4.72h0v0A3.37,3.37,0,0,1,61,32.23a8.94,8.94,0,0,1,.59-1.79A16.42,16.42,0,0,0,62.9,27l.08-.41.22.35a92.27,92.27,0,0,1,6.68,13.52c2,4.62,3.82,9.29,6,13.79l.16.33-.36,0c-1,.07-2,.18-3,.19a7.31,7.31,0,0,1-1.54-.11,2.64,2.64,0,0,1-1.4-.8,9.1,9.1,0,0,1-1.34-2.75l-.5-1.42c-.16-.48-.32-.93-.76-1l-6,.08-6,0v0l6-.24,6-.18a1,1,0,0,1,.75.45,3.46,3.46,0,0,1,.32.72l.52,1.4a9,9,0,0,0,1.31,2.59,3.14,3.14,0,0,0,2.6.72c1,0,2-.12,3-.2l-.2.36c-2.23-4.52-4.07-9.2-6-13.84A92.61,92.61,0,0,0,62.93,27.1l.29-.06a16.12,16.12,0,0,1-1.34,3.51,9.12,9.12,0,0,0-.58,1.74A3.06,3.06,0,0,0,61.39,34l0,0a46.88,46.88,0,0,1,3,4.77c.92,1.63,1.68,3.35,2.61,4.95l.07.13h-.14c-1.7.1-3.39,0-5.08,0a17.24,17.24,0,0,0-5,.48l0,0-1,3.11Z"/><path class="cls-1" d="M77.19,54.12c1.22,0,9.64.37,10.85.19C98.48,52.77,103.73,42,98.27,33.22,93.92,25.64,84.41,26.7,77,26.71a15,15,0,0,0,.16,3.35c2.31,0,6.49.55,8.76.74,9.49.79,11.87,15.25,3.61,18.8-1.43.56-13.51,1.67-11.94,1.57"/><path class="cls-2" d="M77.19,54.09l7.8.19,1.94,0c.33,0,.65,0,1,0s.63-.12.95-.18l1-.21c.31-.07.61-.2.92-.3l.92-.31.87-.42a14.08,14.08,0,0,0,5.74-5.05,13.46,13.46,0,0,0-.19-14.61,11.5,11.5,0,0,0-5.75-4.88,22.5,22.5,0,0,0-7.56-1.39c-2.59-.12-5.18,0-7.78,0l.22-.22c0,.56,0,1.13,0,1.68A5.44,5.44,0,0,0,77.34,30l-.23-.16a55.73,55.73,0,0,1,5.81.43l2.88.29a9.86,9.86,0,0,1,2.88.69,9.38,9.38,0,0,1,4.4,3.88,12,12,0,0,1,1.66,5.61,10.32,10.32,0,0,1-1.36,5.67,8.05,8.05,0,0,1-1.93,2.22,8.25,8.25,0,0,1-1.24.81l-.67.32a4.86,4.86,0,0,1-.73.18c-1.91.34-3.83.54-5.76.74l-2.89.28-1.44.13-.72.07-.36,0-.18,0s0,0,0,0,0,0,0,0h.09v.05h-.09s-.07,0-.07,0l0,0,.18,0,.36,0,.72-.08,1.44-.18L83,50.46c1.91-.25,3.84-.46,5.73-.82a6,6,0,0,0,.67-.17l.64-.32a7.74,7.74,0,0,0,1.17-.79,7.87,7.87,0,0,0,1.83-2.15,10,10,0,0,0,1.23-5.47,11.57,11.57,0,0,0-1.65-5.37,8.9,8.9,0,0,0-4.16-3.68A9.47,9.47,0,0,0,85.76,31l-2.89-.3c-1.92-.2-3.84-.44-5.75-.45h-.18l0-.16a6.14,6.14,0,0,1-.16-1.74c0-.57,0-1.12,0-1.67v-.23H77c2.6,0,5.2-.11,7.81,0A23,23,0,0,1,92.45,28a11.87,11.87,0,0,1,5.88,5,14,14,0,0,1,2.24,7.44,13.74,13.74,0,0,1-2.14,7.45A14.31,14.31,0,0,1,92.58,53l-.88.41-.93.31c-.31.1-.62.22-.94.3l-1,.2c-.33,0-.64.14-1,.18s-.65,0-1,0l-2,0-7.79-.25Z"/><path class="cls-1" d="M89,39.47v2.27c-8.23,1.64,1.19,12.1-11.85,12.38-2-4.9,6-2.32,4.93-7.49-.38-2.56-.2-5,3.49-5.88-7.56-2.77.82-9.38-8.49-10.69V27.15C91.34,27.9,80.33,37.83,89,39.47Z"/><path class="cls-2" d="M89.06,39.45l0,2.29v0h0a5.53,5.53,0,0,0-2.22.93,3.72,3.72,0,0,0-1.33,2,44.89,44.89,0,0,0-.65,4.83,5.63,5.63,0,0,1-.91,2.29A4.76,4.76,0,0,1,82,53.34a12.66,12.66,0,0,1-4.82.91h-.1l0-.09A2.81,2.81,0,0,1,77,51.85a3.5,3.5,0,0,1,1.89-1.35,11.72,11.72,0,0,0,2-.91A2.26,2.26,0,0,0,82,47.9a14.76,14.76,0,0,0-.2-2.23,6.05,6.05,0,0,1,.2-2.31,3.61,3.61,0,0,1,1.39-1.89,6.34,6.34,0,0,1,2.14-.92l0,.39A5.65,5.65,0,0,1,82.4,38.6a7.73,7.73,0,0,1-.62-3.85,6.85,6.85,0,0,0-.23-1.83,2.88,2.88,0,0,0-1-1.43,7.93,7.93,0,0,0-3.48-1.19l-.21,0V26.88l.26,0a15.63,15.63,0,0,1,4.91,1,5.63,5.63,0,0,1,2.1,1.45,4.58,4.58,0,0,1,1,2.31c.29,1.67,0,3.35.33,4.93a3.32,3.32,0,0,0,1.28,2A6.44,6.44,0,0,0,89.06,39.45Zm0,0a6.07,6.07,0,0,1-2.32-.84,3.44,3.44,0,0,1-1.42-2c-.41-1.65-.12-3.34-.43-4.93a4.24,4.24,0,0,0-1-2.13,5.14,5.14,0,0,0-2-1.3,15.47,15.47,0,0,0-4.79-.85l.27-.25v2.91l-.21-.25a8.18,8.18,0,0,1,3.71,1.29A3.41,3.41,0,0,1,82,32.77a7.07,7.07,0,0,1,.23,2,7.51,7.51,0,0,0,.53,3.65,5.25,5.25,0,0,0,2.89,2.16l.62.24-.65.15a6.26,6.26,0,0,0-2,.84,3.28,3.28,0,0,0-1.26,1.69,6.11,6.11,0,0,0-.2,2.18,13.87,13.87,0,0,1,.19,2.29,2.6,2.6,0,0,1-1.31,1.92,12.57,12.57,0,0,1-2.1.93A3.21,3.21,0,0,0,77.21,52a2.58,2.58,0,0,0,.11,2.08L77.19,54a12.43,12.43,0,0,0,4.73-.85,4.51,4.51,0,0,0,1.86-1.45,5.5,5.5,0,0,0,.9-2.21c.32-1.59.2-3.26.7-4.84a3.87,3.87,0,0,1,1.39-2A5.66,5.66,0,0,1,89,41.71l0,0Z"/><path class="cls-1" d="M112.25,32.92H101.13l.78-4.81h16.47c-.27,8.07-8.11,14.21-11.58,21.35h12.39C118.7,51,119,53.24,118,54.31c-6.11,0-11.83,0-17.94.09a14.12,14.12,0,0,1-2.41.07C101.52,48.52,108.44,38.88,112.25,32.92Z"/><path class="cls-2" d="M112.23,32.93l-11.1,0h-.07v-.07l.76-4.81V28h.07L118.38,28h.13v.14a15.51,15.51,0,0,1-1.53,6,34.14,34.14,0,0,1-3.17,5.29c-2.36,3.35-5,6.5-6.84,10.17l-.17-.28,12.39,0h.31l-.09.3A12.69,12.69,0,0,0,119,52a9.8,9.8,0,0,1-.22,1.28,2.91,2.91,0,0,1-.6,1.22l-.07.08H118l-17.93.09.23-.24c0,.08-.13.26-.22.24H99.9l-.22,0-.45,0-.89,0h-.69l0,0a.3.3,0,0,1-.1-.07s-.09-.15,0-.25l0,0,.12-.18.49-.75,2-2.95,4-5.84,4.06-5.84C109.58,36.85,110.93,34.86,112.23,32.93Zm0,0c-1.26,2.06-2.56,4-3.87,6l-4,5.89-4,5.89-2,3L98,54.4l-.12.19s0,0,0,0a.25.25,0,0,0,0-.22.14.14,0,0,0-.08-.06h.53l.88-.05.44,0,.22,0h.21c-.08,0-.24.16-.21.24l.24-.24,17.94-.1-.18.09a4.24,4.24,0,0,0,.71-2.23,12.69,12.69,0,0,1,.41-2.53l.21.3-12.39,0h-.31l.14-.27c1.84-3.72,4.55-6.86,6.92-10.19A34.76,34.76,0,0,0,116.72,34a15.38,15.38,0,0,0,1.53-5.86l.13.13-16.47,0,.08-.06-.8,4.8-.06-.07Z"/><rect class="cls-1" x="128.78" y="27.15" width="5.24" height="26.97"/><path class="cls-2" d="M134,54.14l-5.26,0h-.05v-.06l-.14-27V27h.2L134,26.9h.24v.25c0,4.51,0,9.06,0,13.57Zm0,0-.19-13.55c-.07-4.49,0-8.93,0-13.4l.25.24-5.25,0,.2-.2-.14,27-.06-.06Z"/><path class="cls-1" d="M124.29,22.12h-3.55v4.63A5.73,5.73,0,0,0,122.79,29a5.32,5.32,0,0,0,1.5-1.8Z"/><path class="cls-2" d="M124.28,22.13l-3.54.07.09-.08.08,4.63,0-.09a9.44,9.44,0,0,0,.87,1.24,5.29,5.29,0,0,0,1.16.92h-.26a5.43,5.43,0,0,0,1.42-1.75l0,.15C124.05,25.58,124.15,24,124.28,22.13Zm0,0c.12,1.59.23,3.36.24,5.12v.08l0,.07c-.21.31-.41.65-.66,1a3.19,3.19,0,0,1-.93.86l-.14.08-.11-.08a6.34,6.34,0,0,1-1.2-1.06,9.51,9.51,0,0,1-.86-1.31l0-.05v0l.09-4.63V22h.08Z"/><path class="cls-3" d="M29.93,9.69,45.06,15c2.84,1,4.19-2,4.74-4.22a3.07,3.07,0,0,0-1.88-3.91L32.79,1.56C28.72.07,25.83,8.31,29.93,9.69Z"/><path class="cls-3" d="M30,9.66c3.66,1.31,7.35,2.52,11,3.76l2.76.92a6.75,6.75,0,0,0,2.71.65,3.1,3.1,0,0,0,2.07-1.62,9.84,9.84,0,0,0,1-2.64v0h0A2.79,2.79,0,0,0,48.4,7.44a10.92,10.92,0,0,0-1.86-.71L44.6,6.06q-3.9-1.3-7.78-2.69C35.52,2.92,34.23,2.47,33,2a2.84,2.84,0,0,0-3.39.83,5.94,5.94,0,0,0-1.49,3.62,3.72,3.72,0,0,0,.38,1.94A2.84,2.84,0,0,0,30,9.66Zm0,.07a3,3,0,0,1-1.59-1.29,4.18,4.18,0,0,1-.48-2A6.33,6.33,0,0,1,29.2,2.49,3.75,3.75,0,0,1,31,1.22a3.06,3.06,0,0,1,1.13-.14,7.77,7.77,0,0,1,1.08.26c1.31.42,2.6.87,3.89,1.33,2.59.91,5.17,1.82,7.75,2.76l1.93.7a11.8,11.8,0,0,1,2,.81,3.37,3.37,0,0,1,1.34,3.94v0a10,10,0,0,1-1.11,2.77,3.52,3.52,0,0,1-2.42,1.79A3.58,3.58,0,0,1,45,15.2l-1.37-.49-2.74-1C37.24,12.36,33.6,11,29.92,9.73Z"/><path class="cls-3" d="M58.33,6.75c-2.07-1-5.29-1.81-6.25,1.06l-3.49,10-33-11.58C13.72-2.76-.42-.63.53,8.56c.3,5.76,7.37,9.06,12,5.68.86.24,35.34,12.53,36.15,12.62,2.07.94,5.3,1.81,6.25-1.06l5.31-15.13A3.08,3.08,0,0,0,58.33,6.75ZM8.21,11.48c-4.31.11-4.39-6.66-.07-6.65S12.52,11.49,8.21,11.48Z"/><path class="cls-3" d="M58.32,6.79a8.55,8.55,0,0,0-3.49-.89,2.88,2.88,0,0,0-1.69.49,2.8,2.8,0,0,0-1,1.44H52c-.57,1.66-1.21,3.33-1.7,5s-1.11,3.28-1.67,4.94l0,.07-.07,0L15.52,6.4l-.12,0,0-.12A8.12,8.12,0,0,0,14.54,4,6.4,6.4,0,0,0,13,2.28,7.25,7.25,0,0,0,8.68.73C5.56.59,2.24,2.32,1.19,5.31a8,8,0,0,0-.13,4.61,6.83,6.83,0,0,0,2.58,3.76A7.77,7.77,0,0,0,8,15.25,6.89,6.89,0,0,0,12.3,14l.14-.1.16.05c3.06,1,6,2.08,9.06,3.15l9,3.18,9,3.19L44.21,25c1.48.52,3,1.09,4.47,1.54l.08,0a8.55,8.55,0,0,0,3.39.9,2.65,2.65,0,0,0,1.59-.43,2.7,2.7,0,0,0,1-1.35l.41,0,1.67-5c.27-.83.53-1.69.74-2.52s.47-1.61.75-2.41L60,11a3.22,3.22,0,0,0,.1-2.49A3.05,3.05,0,0,0,58.32,6.79Zm0-.07a3.15,3.15,0,0,1,1.87,1.76,3.3,3.3,0,0,1-.06,2.58l-1.72,5c-.29.84-.62,1.71-1,2.52s-.67,1.59-1,2.39l-1.79,4.87.41,0A3.09,3.09,0,0,1,54,27.45a3.24,3.24,0,0,1-1.85.55,9,9,0,0,1-3.62-.89l.09,0c-1.64-.47-3.08-1-4.61-1.49l-4.54-1.53c-3-1-6-2.11-9-3.17l-18-6.37.3-.05a7.61,7.61,0,0,1-4.79,1.39,8.47,8.47,0,0,1-4.66-1.73A7.54,7.54,0,0,1,.49,10.07a8.56,8.56,0,0,1,.17-5A7.22,7.22,0,0,1,3.9,1.38,8.85,8.85,0,0,1,8.7.23a7.69,7.69,0,0,1,4.62,1.68A6.91,6.91,0,0,1,15,3.81a8.77,8.77,0,0,1,.86,2.34L15.67,6,48.61,17.7l-.09,0c.59-1.65,1.14-3.33,1.82-5s1.2-3.27,1.79-4.92l-.1,0a2.74,2.74,0,0,1,2.8-2A8.63,8.63,0,0,1,58.35,6.72Z"/><path class="cls-3" d="M8.21,11.52a3.46,3.46,0,0,1-2.41-.9,3.59,3.59,0,0,1-1-2.43,3.75,3.75,0,0,1,.87-2.55A3.44,3.44,0,0,1,8.13,4.53a3.52,3.52,0,0,1,2.63,1,3.66,3.66,0,0,1,1,2.62,3.47,3.47,0,0,1-1.09,2.53A3.56,3.56,0,0,1,8.21,11.52Zm0-.08a2.78,2.78,0,0,0,2.19-1.07A3.5,3.5,0,0,0,11,8.12,3.3,3.3,0,0,0,10.22,6a2.8,2.8,0,0,0-2.08-.87A2.88,2.88,0,0,0,6,6a3.27,3.27,0,0,0-.85,2.22,3.41,3.41,0,0,0,.79,2.32A2.9,2.9,0,0,0,8.21,11.44Z"/><path class="cls-3" d="M10.91,50.75,15.7,35.44a3.06,3.06,0,0,0-2-3.84c-2.1-.87-5.35-1.64-6.21,1.27l-4.8,15.3C1.34,52.29,9.67,54.9,10.91,50.75Z"/><path class="cls-3" d="M10.87,50.74c.52-1.66,1.06-3.32,1.54-5l1.49-5,1.49-5a3,3,0,0,0,0-2.39,2.89,2.89,0,0,0-1.76-1.54h0a8.46,8.46,0,0,0-3.43-.73,2.66,2.66,0,0,0-1.54.51A2.61,2.61,0,0,0,7.77,33l-.59,0L6.11,36.32a29.91,29.91,0,0,0-.94,3.56c-.1.61-.13,1.2-.2,1.72a13,13,0,0,1-.36,1.56c-.3,1.06-.64,2.15-1,3.25l-.55,1.64a6.76,6.76,0,0,0-.19.78,4,4,0,0,0,0,.77A4,4,0,0,0,5,52a5.67,5.67,0,0,0,3.3.7A3,3,0,0,0,10.87,50.74Zm.07,0a3.07,3.07,0,0,1-2.62,2.13,6.1,6.1,0,0,1-3.51-.53,4.38,4.38,0,0,1-2.5-2.62,4,4,0,0,1-.07-1,6.11,6.11,0,0,1,.19-.93l.5-1.71c.36-1.14.72-2.28,1.12-3.45a18.79,18.79,0,0,1,.69-1.79c.27-.6.6-1.13.85-1.63a25.4,25.4,0,0,0,1.16-3.14l1-3.29-.59,0a3,3,0,0,1,3-2.23,9.09,9.09,0,0,1,3.63.82h0a3.31,3.31,0,0,1,2,1.82,3.48,3.48,0,0,1,0,2.69l-1.63,5-1.63,4.95C12,47.44,11.47,49.1,10.94,50.76Z"/><path class="cls-3" d="M7.57,22.7C6.63,24.78,5.78,28,8.65,29l10,3.45L7.2,65.44c-8.95,1.92-6.75,16,2.44,15.06,5.75-.33,9-7.42,5.62-12,.23-.86,12.37-35.4,12.45-36.2.94-2.08,1.79-5.31-1.08-6.25L11.47,20.8A3.07,3.07,0,0,0,7.57,22.7Zm4.95,50.1c.13,4.31-6.65,4.42-6.65.11S12.51,68.49,12.52,72.8Z"/><path class="cls-3" d="M7.6,22.72a8.52,8.52,0,0,0-.87,3.49,2.9,2.9,0,0,0,.49,1.69,2.85,2.85,0,0,0,1.45,1V29c1.66.57,3.33,1.19,5,1.68s3.29,1.09,4.95,1.65l.07,0,0,.07L7.41,65.52l0,.11-.13,0a8.55,8.55,0,0,0-2.19.84A6.41,6.41,0,0,0,3.3,68a7.22,7.22,0,0,0-1.53,4.36c-.13,3.11,1.62,6.42,4.61,7.46A7.87,7.87,0,0,0,11,80a6.87,6.87,0,0,0,3.75-2.59,7.73,7.73,0,0,0,1.55-4.32A6.9,6.9,0,0,0,15,68.7l-.1-.14,0-.15c1-3.07,2.05-6.06,3.1-9.08l3.15-9,3.14-9,1.6-4.51c.51-1.48,1.08-3.06,1.52-4.47l0-.09a8.51,8.51,0,0,0,.9-3.39,2.74,2.74,0,0,0-.45-1.59,2.7,2.7,0,0,0-1.35-.95l0-.41-5-1.65c-.84-.26-1.7-.52-2.53-.73s-1.6-.46-2.41-.73L11.82,21a3.22,3.22,0,0,0-2.49-.09A3,3,0,0,0,7.6,22.72Zm-.07,0a3.15,3.15,0,0,1,1.75-1.88,3.33,3.33,0,0,1,2.59.05l5,1.69c.83.29,1.7.61,2.52,1s1.59.67,2.4,1l4.87,1.77,0-.41a3.06,3.06,0,0,1,1.59,1.09,3.17,3.17,0,0,1,.56,1.85A9,9,0,0,1,28,32.41l0-.08c-.46,1.64-1,3.08-1.46,4.61L25,41.49c-1,3-2.08,6-3.12,9L15.59,68.59l-.05-.3A7.67,7.67,0,0,1,17,73.08a8.38,8.38,0,0,1-1.71,4.66,7.47,7.47,0,0,1-4.1,2.79,8.44,8.44,0,0,1-4.95-.15,7.14,7.14,0,0,1-3.75-3.22,8.93,8.93,0,0,1-1.18-4.79,7.75,7.75,0,0,1,1.66-4.64,7.06,7.06,0,0,1,1.9-1.63,8.88,8.88,0,0,1,2.33-.88L7,65.37l11.57-33,.05.09c-1.66-.59-3.34-1.13-5-1.8s-3.27-1.19-4.93-1.77V29A3,3,0,0,1,7.14,28a3.06,3.06,0,0,1-.51-1.74A8.73,8.73,0,0,1,7.53,22.69Z"/><path class="cls-3" d="M12.55,72.8a3.36,3.36,0,0,1-.89,2.42,3.59,3.59,0,0,1-2.41,1.06,3.7,3.7,0,0,1-2.56-.86,3.41,3.41,0,0,1-1.12-2.51,3.49,3.49,0,0,1,.95-2.63,3.68,3.68,0,0,1,2.62-1,3.46,3.46,0,0,1,2.53,1.08A3.49,3.49,0,0,1,12.55,72.8Zm-.07,0a2.8,2.8,0,0,0-1.08-2.18A3.55,3.55,0,0,0,9.15,70,3.34,3.34,0,0,0,7,70.82a2.79,2.79,0,0,0-.86,2.08A2.88,2.88,0,0,0,7,75.05a3.28,3.28,0,0,0,2.23.85,3.45,3.45,0,0,0,2.32-.8A2.89,2.89,0,0,0,12.48,72.8Z"/><path class="cls-3" d="M49.88,70.57l-15.22-5a3.07,3.07,0,0,0-3.88,1.95c-.91,2.09-1.72,5.33,1.17,6.23l15.23,5C51.28,80.17,54,71.88,49.88,70.57Z"/><path class="cls-3" d="M49.87,70.61c-1.65-.54-3.29-1.11-5-1.62l-5-1.57-5-1.57a3.05,3.05,0,0,0-2.39,0A2.83,2.83,0,0,0,31,67.57h0v0A8.58,8.58,0,0,0,30.21,71,2.43,2.43,0,0,0,32,73.44L32,74l3.39,1.13a32.24,32.24,0,0,0,3.54,1c.62.11,1.2.14,1.72.23a11.07,11.07,0,0,1,1.56.38c1,.31,2.14.68,3.23,1l1.63.58a6.9,6.9,0,0,0,.78.2,3.31,3.31,0,0,0,.77,0,4,4,0,0,0,2.44-2,5.81,5.81,0,0,0,.75-3.29A3,3,0,0,0,49.87,70.61Zm0-.07A3.07,3.07,0,0,1,52,73.19a6.07,6.07,0,0,1-.58,3.5,4.36,4.36,0,0,1-2.66,2.46,4,4,0,0,1-1,.06,6.06,6.06,0,0,1-.93-.21l-1.7-.52L41.7,77.31a17.43,17.43,0,0,1-1.77-.73c-.59-.28-1.12-.61-1.62-.87a23.75,23.75,0,0,0-3.12-1.21l-3.27-1.08-.06.59a3,3,0,0,1-2.19-3,9,9,0,0,1,.89-3.63v0a3.31,3.31,0,0,1,1.86-2,3.41,3.41,0,0,1,2.68,0L40,67.17,45,68.88C46.59,69.46,48.25,70,49.89,70.54Z"/><path class="cls-3" d="M21.4,73.47c2.09.91,5.33,1.72,6.23-1.17l3.32-10,33.19,11c2,8.92,16.14,6.53,15-2.65-.4-5.75-7.53-8.92-12.07-5.46-.87-.22-35.57-11.87-36.37-11.94-2.09-.91-5.33-1.72-6.24,1.17l-5,15.23A3.06,3.06,0,0,0,21.4,73.47Zm50-5.64c4.31-.19,4.51,6.58.2,6.64S67.12,67.89,71.43,67.83Z"/><path class="cls-3" d="M21.42,73.44a8.55,8.55,0,0,0,3.5.82,2.88,2.88,0,0,0,1.68-.52,2.84,2.84,0,0,0,1-1.46h.11c.54-1.67,1.14-3.35,1.61-5.06s1-3.3,1.57-5l0-.07.07,0L64.21,73l.12,0,0,.13a9,9,0,0,0,.87,2.18,6.44,6.44,0,0,0,1.56,1.73,7.21,7.21,0,0,0,4.37,1.47c3.12.09,6.41-1.71,7.41-4.71a8,8,0,0,0,0-4.61A6.88,6.88,0,0,0,76,65.54a7.75,7.75,0,0,0-4.34-1.49,6.83,6.83,0,0,0-4.32,1.37l-.15.11-.15,0c-3.08-1-6.08-2-9.12-3l-9.08-3-9.08-3-4.54-1.53c-1.49-.5-3.07-1-4.49-1.46l-.08,0a8.45,8.45,0,0,0-3.4-.85,2.71,2.71,0,0,0-1.59.47,2.75,2.75,0,0,0-.94,1.36l-.41,0-1.57,5c-.26.84-.5,1.7-.7,2.54s-.43,1.61-.7,2.41l-1.65,4.9a3.14,3.14,0,0,0,0,2.48A3,3,0,0,0,21.42,73.44Zm0,.07a3.16,3.16,0,0,1-1.9-1.73,3.28,3.28,0,0,1,0-2.59l1.62-5c.28-.85.59-1.72.94-2.54s.64-1.6.93-2.41l1.7-4.9-.41,0a3.13,3.13,0,0,1,1.07-1.61,3.26,3.26,0,0,1,1.84-.58,8.85,8.85,0,0,1,3.64.82l-.09,0c1.65.44,3.09.93,4.64,1.41l4.56,1.45c3,1,6.06,2,9.09,3l18.14,6-.29.06a7.63,7.63,0,0,1,4.76-1.48A8.46,8.46,0,0,1,76.33,65a7.54,7.54,0,0,1,2.85,4.06,8.6,8.6,0,0,1-.08,5,7.17,7.17,0,0,1-3.17,3.79,9,9,0,0,1-4.78,1.25,7.73,7.73,0,0,1-4.66-1.6,6.86,6.86,0,0,1-1.65-1.87,8.58,8.58,0,0,1-.92-2.32l.15.16L30.92,62.35l.1-.05c-.57,1.67-1.09,3.36-1.74,5s-1.14,3.29-1.7,5h.1a2.73,2.73,0,0,1-2.76,2A8.79,8.79,0,0,1,21.39,73.51Z"/><path class="cls-3" d="M71.43,67.79a3.38,3.38,0,0,1,2.42.86,3.53,3.53,0,0,1,1.1,2.4,3.73,3.73,0,0,1-.83,2.57,3.39,3.39,0,0,1-2.49,1.15A3.5,3.5,0,0,1,69,73.86a3.67,3.67,0,0,1-1.07-2.6,3.35,3.35,0,0,1,3.51-3.47Zm0,.08A2.76,2.76,0,0,0,69.27,69a3.55,3.55,0,0,0-.6,2.27,3.32,3.32,0,0,0,.85,2.1,2.77,2.77,0,0,0,2.1.83,2.87,2.87,0,0,0,2.14-.87,3.27,3.27,0,0,0,.81-2.24,3.38,3.38,0,0,0-.83-2.3A2.89,2.89,0,0,0,71.43,67.87Z"/><path class="cls-1" d="M29.93,9.69,45.06,15c2.84,1,4.19-2,4.74-4.22a3.07,3.07,0,0,0-1.88-3.91L32.79,1.56C28.72.07,25.83,8.31,29.93,9.69Z"/><path class="cls-1" d="M30,9.66c3.66,1.31,7.35,2.52,11,3.76l2.76.92a6.75,6.75,0,0,0,2.71.65,3.1,3.1,0,0,0,2.07-1.62,9.84,9.84,0,0,0,1-2.64v0h0A2.79,2.79,0,0,0,48.4,7.44a10.92,10.92,0,0,0-1.86-.71L44.6,6.06q-3.9-1.3-7.78-2.69C35.52,2.92,34.23,2.47,33,2a2.84,2.84,0,0,0-3.39.83,5.94,5.94,0,0,0-1.49,3.62,3.72,3.72,0,0,0,.38,1.94A2.84,2.84,0,0,0,30,9.66Zm0,.07a3,3,0,0,1-1.59-1.29,4.18,4.18,0,0,1-.48-2A6.33,6.33,0,0,1,29.2,2.49,3.75,3.75,0,0,1,31,1.22a3.06,3.06,0,0,1,1.13-.14,7.77,7.77,0,0,1,1.08.26c1.31.42,2.6.87,3.89,1.33,2.59.91,5.17,1.82,7.75,2.76l1.93.7a11.8,11.8,0,0,1,2,.81,3.37,3.37,0,0,1,1.34,3.94v0a10,10,0,0,1-1.11,2.77,3.52,3.52,0,0,1-2.42,1.79A3.58,3.58,0,0,1,45,15.2l-1.37-.49-2.74-1C37.24,12.36,33.6,11,29.92,9.73Z"/><path class="cls-1" d="M58.33,6.75c-2.07-1-5.29-1.81-6.25,1.06l-3.49,10-33-11.58C13.72-2.76-.42-.63.53,8.56c.3,5.76,7.37,9.06,12,5.68.86.24,35.34,12.53,36.15,12.62,2.07.94,5.3,1.81,6.25-1.06l5.31-15.13A3.08,3.08,0,0,0,58.33,6.75ZM8.21,11.48c-4.31.11-4.39-6.66-.07-6.65S12.52,11.49,8.21,11.48Z"/><path class="cls-1" d="M58.32,6.79a8.55,8.55,0,0,0-3.49-.89,2.88,2.88,0,0,0-1.69.49,2.8,2.8,0,0,0-1,1.44H52c-.57,1.66-1.21,3.33-1.7,5s-1.11,3.28-1.67,4.94l0,.07-.07,0L15.52,6.4l-.12,0,0-.12A8.12,8.12,0,0,0,14.54,4,6.4,6.4,0,0,0,13,2.28,7.25,7.25,0,0,0,8.68.73C5.56.59,2.24,2.32,1.19,5.31a8,8,0,0,0-.13,4.61,6.83,6.83,0,0,0,2.58,3.76A7.77,7.77,0,0,0,8,15.25,6.89,6.89,0,0,0,12.3,14l.14-.1.16.05c3.06,1,6,2.08,9.06,3.15l9,3.18,9,3.19L44.21,25c1.48.52,3,1.09,4.47,1.54l.08,0a8.55,8.55,0,0,0,3.39.9,2.65,2.65,0,0,0,1.59-.43,2.7,2.7,0,0,0,1-1.35l.41,0,1.67-5c.27-.83.53-1.69.74-2.52s.47-1.61.75-2.41L60,11a3.22,3.22,0,0,0,.1-2.49A3.05,3.05,0,0,0,58.32,6.79Zm0-.07a3.15,3.15,0,0,1,1.87,1.76,3.3,3.3,0,0,1-.06,2.58l-1.72,5c-.29.84-.62,1.71-1,2.52s-.67,1.59-1,2.39l-1.79,4.87.41,0A3.09,3.09,0,0,1,54,27.45a3.24,3.24,0,0,1-1.85.55,9,9,0,0,1-3.62-.89l.09,0c-1.64-.47-3.08-1-4.61-1.49l-4.54-1.53c-3-1-6-2.11-9-3.17l-18-6.37.3-.05a7.61,7.61,0,0,1-4.79,1.39,8.47,8.47,0,0,1-4.66-1.73A7.54,7.54,0,0,1,.49,10.07a8.56,8.56,0,0,1,.17-5A7.22,7.22,0,0,1,3.9,1.38,8.85,8.85,0,0,1,8.7.23a7.69,7.69,0,0,1,4.62,1.68A6.91,6.91,0,0,1,15,3.81a8.77,8.77,0,0,1,.86,2.34L15.67,6,48.61,17.7l-.09,0c.59-1.65,1.14-3.33,1.82-5s1.2-3.27,1.79-4.92l-.1,0a2.74,2.74,0,0,1,2.8-2A8.63,8.63,0,0,1,58.35,6.72Z"/><path class="cls-1" d="M8.21,11.52a3.46,3.46,0,0,1-2.41-.9,3.59,3.59,0,0,1-1-2.43,3.75,3.75,0,0,1,.87-2.55A3.44,3.44,0,0,1,8.13,4.53a3.52,3.52,0,0,1,2.63,1,3.66,3.66,0,0,1,1,2.62,3.47,3.47,0,0,1-1.09,2.53A3.56,3.56,0,0,1,8.21,11.52Zm0-.08a2.78,2.78,0,0,0,2.19-1.07A3.5,3.5,0,0,0,11,8.12,3.3,3.3,0,0,0,10.22,6a2.8,2.8,0,0,0-2.08-.87A2.88,2.88,0,0,0,6,6a3.27,3.27,0,0,0-.85,2.22,3.41,3.41,0,0,0,.79,2.32A2.9,2.9,0,0,0,8.21,11.44Z"/><path class="cls-1" d="M10.91,50.75,15.7,35.44a3.06,3.06,0,0,0-2-3.84c-2.1-.87-5.35-1.64-6.21,1.27l-4.8,15.3C1.34,52.29,9.67,54.9,10.91,50.75Z"/><path class="cls-1" d="M10.87,50.74c.52-1.66,1.06-3.32,1.54-5l1.49-5,1.49-5a3,3,0,0,0,0-2.39,2.89,2.89,0,0,0-1.76-1.54h0a8.46,8.46,0,0,0-3.43-.73,2.66,2.66,0,0,0-1.54.51A2.61,2.61,0,0,0,7.77,33l-.59,0L6.11,36.32a29.91,29.91,0,0,0-.94,3.56c-.1.61-.13,1.2-.2,1.72a13,13,0,0,1-.36,1.56c-.3,1.06-.64,2.15-1,3.25l-.55,1.64a6.76,6.76,0,0,0-.19.78,4,4,0,0,0,0,.77A4,4,0,0,0,5,52a5.67,5.67,0,0,0,3.3.7A3,3,0,0,0,10.87,50.74Zm.07,0a3.07,3.07,0,0,1-2.62,2.13,6.1,6.1,0,0,1-3.51-.53,4.38,4.38,0,0,1-2.5-2.62,4,4,0,0,1-.07-1,6.11,6.11,0,0,1,.19-.93l.5-1.71c.36-1.14.72-2.28,1.12-3.45a18.79,18.79,0,0,1,.69-1.79c.27-.6.6-1.13.85-1.63a25.4,25.4,0,0,0,1.16-3.14l1-3.29-.59,0a3,3,0,0,1,3-2.23,9.09,9.09,0,0,1,3.63.82h0a3.31,3.31,0,0,1,2,1.82,3.48,3.48,0,0,1,0,2.69l-1.63,5-1.63,4.95C12,47.44,11.47,49.1,10.94,50.76Z"/><path class="cls-1" d="M7.57,22.7C6.63,24.78,5.78,28,8.65,29l10,3.45L7.2,65.44c-8.95,1.92-6.75,16,2.44,15.06,5.75-.33,9-7.42,5.62-12,.23-.86,12.37-35.4,12.45-36.2.94-2.08,1.79-5.31-1.08-6.25L11.47,20.8A3.07,3.07,0,0,0,7.57,22.7Zm4.95,50.1c.13,4.31-6.65,4.42-6.65.11S12.51,68.49,12.52,72.8Z"/><path class="cls-1" d="M7.6,22.72a8.52,8.52,0,0,0-.87,3.49,2.9,2.9,0,0,0,.49,1.69,2.85,2.85,0,0,0,1.45,1V29c1.66.57,3.33,1.19,5,1.68s3.29,1.09,4.95,1.65l.07,0,0,.07L7.41,65.52l0,.11-.13,0a8.55,8.55,0,0,0-2.19.84A6.41,6.41,0,0,0,3.3,68a7.22,7.22,0,0,0-1.53,4.36c-.13,3.11,1.62,6.42,4.61,7.46A7.87,7.87,0,0,0,11,80a6.87,6.87,0,0,0,3.75-2.59,7.73,7.73,0,0,0,1.55-4.32A6.9,6.9,0,0,0,15,68.7l-.1-.14,0-.15c1-3.07,2.05-6.06,3.1-9.08l3.15-9,3.14-9,1.6-4.51c.51-1.48,1.08-3.06,1.52-4.47l0-.09a8.51,8.51,0,0,0,.9-3.39,2.74,2.74,0,0,0-.45-1.59,2.7,2.7,0,0,0-1.35-.95l0-.41-5-1.65c-.84-.26-1.7-.52-2.53-.73s-1.6-.46-2.41-.73L11.82,21a3.22,3.22,0,0,0-2.49-.09A3,3,0,0,0,7.6,22.72Zm-.07,0a3.15,3.15,0,0,1,1.75-1.88,3.33,3.33,0,0,1,2.59.05l5,1.69c.83.29,1.7.61,2.52,1s1.59.67,2.4,1l4.87,1.77,0-.41a3.06,3.06,0,0,1,1.59,1.09,3.17,3.17,0,0,1,.56,1.85A9,9,0,0,1,28,32.41l0-.08c-.46,1.64-1,3.08-1.46,4.61L25,41.49c-1,3-2.08,6-3.12,9L15.59,68.59l-.05-.3A7.67,7.67,0,0,1,17,73.08a8.38,8.38,0,0,1-1.71,4.66,7.47,7.47,0,0,1-4.1,2.79,8.44,8.44,0,0,1-4.95-.15,7.14,7.14,0,0,1-3.75-3.22,8.93,8.93,0,0,1-1.18-4.79,7.75,7.75,0,0,1,1.66-4.64,7.06,7.06,0,0,1,1.9-1.63,8.88,8.88,0,0,1,2.33-.88L7,65.37l11.57-33,.05.09c-1.66-.59-3.34-1.13-5-1.8s-3.27-1.19-4.93-1.77V29A3,3,0,0,1,7.14,28a3.06,3.06,0,0,1-.51-1.74A8.73,8.73,0,0,1,7.53,22.69Z"/><path class="cls-1" d="M12.55,72.8a3.36,3.36,0,0,1-.89,2.42,3.59,3.59,0,0,1-2.41,1.06,3.7,3.7,0,0,1-2.56-.86,3.41,3.41,0,0,1-1.12-2.51,3.49,3.49,0,0,1,.95-2.63,3.68,3.68,0,0,1,2.62-1,3.46,3.46,0,0,1,2.53,1.08A3.49,3.49,0,0,1,12.55,72.8Zm-.07,0a2.8,2.8,0,0,0-1.08-2.18A3.55,3.55,0,0,0,9.15,70,3.34,3.34,0,0,0,7,70.82a2.79,2.79,0,0,0-.86,2.08A2.88,2.88,0,0,0,7,75.05a3.28,3.28,0,0,0,2.23.85,3.45,3.45,0,0,0,2.32-.8A2.89,2.89,0,0,0,12.48,72.8Z"/><path class="cls-1" d="M49.88,70.57l-15.22-5a3.07,3.07,0,0,0-3.88,1.95c-.91,2.09-1.72,5.33,1.17,6.23l15.23,5C51.28,80.17,54,71.88,49.88,70.57Z"/><path class="cls-1" d="M49.87,70.61c-1.65-.54-3.29-1.11-5-1.62l-5-1.57-5-1.57a3.05,3.05,0,0,0-2.39,0A2.83,2.83,0,0,0,31,67.57h0v0A8.58,8.58,0,0,0,30.21,71,2.43,2.43,0,0,0,32,73.44L32,74l3.39,1.13a32.24,32.24,0,0,0,3.54,1c.62.11,1.2.14,1.72.23a11.07,11.07,0,0,1,1.56.38c1,.31,2.14.68,3.23,1l1.63.58a6.9,6.9,0,0,0,.78.2,3.31,3.31,0,0,0,.77,0,4,4,0,0,0,2.44-2,5.81,5.81,0,0,0,.75-3.29A3,3,0,0,0,49.87,70.61Zm0-.07A3.07,3.07,0,0,1,52,73.19a6.07,6.07,0,0,1-.58,3.5,4.36,4.36,0,0,1-2.66,2.46,4,4,0,0,1-1,.06,6.06,6.06,0,0,1-.93-.21l-1.7-.52L41.7,77.31a17.43,17.43,0,0,1-1.77-.73c-.59-.28-1.12-.61-1.62-.87a23.75,23.75,0,0,0-3.12-1.21l-3.27-1.08-.06.59a3,3,0,0,1-2.19-3,9,9,0,0,1,.89-3.63v0a3.31,3.31,0,0,1,1.86-2,3.41,3.41,0,0,1,2.68,0L40,67.17,45,68.88C46.59,69.46,48.25,70,49.89,70.54Z"/><path class="cls-1" d="M21.4,73.47c2.09.91,5.33,1.72,6.23-1.17l3.32-10,33.19,11c2,8.92,16.14,6.53,15-2.65-.4-5.75-7.53-8.92-12.07-5.46-.87-.22-35.57-11.87-36.37-11.94-2.09-.91-5.33-1.72-6.24,1.17l-5,15.23A3.06,3.06,0,0,0,21.4,73.47Zm50-5.64c4.31-.19,4.51,6.58.2,6.64S67.12,67.89,71.43,67.83Z"/><path class="cls-1" d="M21.42,73.44a8.55,8.55,0,0,0,3.5.82,2.88,2.88,0,0,0,1.68-.52,2.84,2.84,0,0,0,1-1.46h.11c.54-1.67,1.14-3.35,1.61-5.06s1-3.3,1.57-5l0-.07.07,0L64.21,73l.12,0,0,.13a9,9,0,0,0,.87,2.18,6.44,6.44,0,0,0,1.56,1.73,7.21,7.21,0,0,0,4.37,1.47c3.12.09,6.41-1.71,7.41-4.71a8,8,0,0,0,0-4.61A6.88,6.88,0,0,0,76,65.54a7.75,7.75,0,0,0-4.34-1.49,6.83,6.83,0,0,0-4.32,1.37l-.15.11-.15,0c-3.08-1-6.08-2-9.12-3l-9.08-3-9.08-3-4.54-1.53c-1.49-.5-3.07-1-4.49-1.46l-.08,0a8.45,8.45,0,0,0-3.4-.85,2.71,2.71,0,0,0-1.59.47,2.75,2.75,0,0,0-.94,1.36l-.41,0-1.57,5c-.26.84-.5,1.7-.7,2.54s-.43,1.61-.7,2.41l-1.65,4.9a3.14,3.14,0,0,0,0,2.48A3,3,0,0,0,21.42,73.44Zm0,.07a3.16,3.16,0,0,1-1.9-1.73,3.28,3.28,0,0,1,0-2.59l1.62-5c.28-.85.59-1.72.94-2.54s.64-1.6.93-2.41l1.7-4.9-.41,0a3.13,3.13,0,0,1,1.07-1.61,3.26,3.26,0,0,1,1.84-.58,8.85,8.85,0,0,1,3.64.82l-.09,0c1.65.44,3.09.93,4.64,1.41l4.56,1.45c3,1,6.06,2,9.09,3l18.14,6-.29.06a7.63,7.63,0,0,1,4.76-1.48A8.46,8.46,0,0,1,76.33,65a7.54,7.54,0,0,1,2.85,4.06,8.6,8.6,0,0,1-.08,5,7.17,7.17,0,0,1-3.17,3.79,9,9,0,0,1-4.78,1.25,7.73,7.73,0,0,1-4.66-1.6,6.86,6.86,0,0,1-1.65-1.87,8.58,8.58,0,0,1-.92-2.32l.15.16L30.92,62.35l.1-.05c-.57,1.67-1.09,3.36-1.74,5s-1.14,3.29-1.7,5h.1a2.73,2.73,0,0,1-2.76,2A8.79,8.79,0,0,1,21.39,73.51Z"/><path class="cls-1" d="M71.43,67.79a3.38,3.38,0,0,1,2.42.86,3.53,3.53,0,0,1,1.1,2.4,3.73,3.73,0,0,1-.83,2.57,3.39,3.39,0,0,1-2.49,1.15A3.5,3.5,0,0,1,69,73.86a3.67,3.67,0,0,1-1.07-2.6,3.35,3.35,0,0,1,3.51-3.47Zm0,.08A2.76,2.76,0,0,0,69.27,69a3.55,3.55,0,0,0-.6,2.27,3.32,3.32,0,0,0,.85,2.1,2.77,2.77,0,0,0,2.1.83,2.87,2.87,0,0,0,2.14-.87,3.27,3.27,0,0,0,.81-2.24,3.38,3.38,0,0,0-.83-2.3A2.89,2.89,0,0,0,71.43,67.87Z"/><path class="cls-1" d="M29.93,9.69,45.06,15c2.84,1,4.19-2,4.74-4.22a3.07,3.07,0,0,0-1.88-3.91L32.79,1.56C28.72.07,25.83,8.31,29.93,9.69Z"/><path class="cls-2" d="M30,9.66c3.66,1.31,7.35,2.52,11,3.76l2.76.92a6.75,6.75,0,0,0,2.71.65,3.1,3.1,0,0,0,2.07-1.62,9.84,9.84,0,0,0,1-2.64v0h0A2.79,2.79,0,0,0,48.4,7.44a10.92,10.92,0,0,0-1.86-.71L44.6,6.06q-3.9-1.3-7.78-2.69C35.52,2.92,34.23,2.47,33,2a2.84,2.84,0,0,0-3.39.83,5.94,5.94,0,0,0-1.49,3.62,3.72,3.72,0,0,0,.38,1.94A2.84,2.84,0,0,0,30,9.66Zm0,.07a3,3,0,0,1-1.59-1.29,4.18,4.18,0,0,1-.48-2A6.33,6.33,0,0,1,29.2,2.49,3.75,3.75,0,0,1,31,1.22a3.06,3.06,0,0,1,1.13-.14,7.77,7.77,0,0,1,1.08.26c1.31.42,2.6.87,3.89,1.33,2.59.91,5.17,1.82,7.75,2.76l1.93.7a11.8,11.8,0,0,1,2,.81,3.37,3.37,0,0,1,1.34,3.94v0a10,10,0,0,1-1.11,2.77,3.52,3.52,0,0,1-2.42,1.79A3.58,3.58,0,0,1,45,15.2l-1.37-.49-2.74-1C37.24,12.36,33.6,11,29.92,9.73Z"/><path class="cls-1" d="M58.33,6.75c-2.07-1-5.29-1.81-6.25,1.06l-3.49,10-33-11.58C13.72-2.76-.42-.63.53,8.56c.3,5.76,7.37,9.06,12,5.68.86.24,35.34,12.53,36.15,12.62,2.07.94,5.3,1.81,6.25-1.06l5.31-15.13A3.08,3.08,0,0,0,58.33,6.75ZM8.21,11.48c-4.31.11-4.39-6.66-.07-6.65S12.52,11.49,8.21,11.48Z"/><path class="cls-2" d="M58.32,6.79a8.55,8.55,0,0,0-3.49-.89,2.88,2.88,0,0,0-1.69.49,2.8,2.8,0,0,0-1,1.44H52c-.57,1.66-1.21,3.33-1.7,5s-1.11,3.28-1.67,4.94l0,.07-.07,0L15.52,6.4l-.12,0,0-.12A8.12,8.12,0,0,0,14.54,4,6.4,6.4,0,0,0,13,2.28,7.25,7.25,0,0,0,8.68.73C5.56.59,2.24,2.32,1.19,5.31a8,8,0,0,0-.13,4.61,6.83,6.83,0,0,0,2.58,3.76A7.77,7.77,0,0,0,8,15.25,6.89,6.89,0,0,0,12.3,14l.14-.1.16.05c3.06,1,6,2.08,9.06,3.15l9,3.18,9,3.19L44.21,25c1.48.52,3,1.09,4.47,1.54l.08,0a8.55,8.55,0,0,0,3.39.9,2.65,2.65,0,0,0,1.59-.43,2.7,2.7,0,0,0,1-1.35l.41,0,1.67-5c.27-.83.53-1.69.74-2.52s.47-1.61.75-2.41L60,11a3.22,3.22,0,0,0,.1-2.49A3.05,3.05,0,0,0,58.32,6.79Zm0-.07a3.15,3.15,0,0,1,1.87,1.76,3.3,3.3,0,0,1-.06,2.58l-1.72,5c-.29.84-.62,1.71-1,2.52s-.67,1.59-1,2.39l-1.79,4.87.41,0A3.09,3.09,0,0,1,54,27.45a3.24,3.24,0,0,1-1.85.55,9,9,0,0,1-3.62-.89l.09,0c-1.64-.47-3.08-1-4.61-1.49l-4.54-1.53c-3-1-6-2.11-9-3.17l-18-6.37.3-.05a7.61,7.61,0,0,1-4.79,1.39,8.47,8.47,0,0,1-4.66-1.73A7.54,7.54,0,0,1,.49,10.07a8.56,8.56,0,0,1,.17-5A7.22,7.22,0,0,1,3.9,1.38,8.85,8.85,0,0,1,8.7.23a7.69,7.69,0,0,1,4.62,1.68A6.91,6.91,0,0,1,15,3.81a8.77,8.77,0,0,1,.86,2.34L15.67,6,48.61,17.7l-.09,0c.59-1.65,1.14-3.33,1.82-5s1.2-3.27,1.79-4.92l-.1,0a2.74,2.74,0,0,1,2.8-2A8.63,8.63,0,0,1,58.35,6.72Z"/><path class="cls-2" d="M8.21,11.52a3.46,3.46,0,0,1-2.41-.9,3.59,3.59,0,0,1-1-2.43,3.75,3.75,0,0,1,.87-2.55A3.44,3.44,0,0,1,8.13,4.53a3.52,3.52,0,0,1,2.63,1,3.66,3.66,0,0,1,1,2.62,3.47,3.47,0,0,1-1.09,2.53A3.56,3.56,0,0,1,8.21,11.52Zm0-.08a2.78,2.78,0,0,0,2.19-1.07A3.5,3.5,0,0,0,11,8.12,3.3,3.3,0,0,0,10.22,6a2.8,2.8,0,0,0-2.08-.87A2.88,2.88,0,0,0,6,6a3.27,3.27,0,0,0-.85,2.22,3.41,3.41,0,0,0,.79,2.32A2.9,2.9,0,0,0,8.21,11.44Z"/><path class="cls-1" d="M10.91,50.75,15.7,35.44a3.06,3.06,0,0,0-2-3.84c-2.1-.87-5.35-1.64-6.21,1.27l-4.8,15.3C1.34,52.29,9.67,54.9,10.91,50.75Z"/><path class="cls-2" d="M10.87,50.74c.52-1.66,1.06-3.32,1.54-5l1.49-5,1.49-5a3,3,0,0,0,0-2.39,2.89,2.89,0,0,0-1.76-1.54h0a8.46,8.46,0,0,0-3.43-.73,2.66,2.66,0,0,0-1.54.51A2.61,2.61,0,0,0,7.77,33l-.59,0L6.11,36.32a29.91,29.91,0,0,0-.94,3.56c-.1.61-.13,1.2-.2,1.72a13,13,0,0,1-.36,1.56c-.3,1.06-.64,2.15-1,3.25l-.55,1.64a6.76,6.76,0,0,0-.19.78,4,4,0,0,0,0,.77A4,4,0,0,0,5,52a5.67,5.67,0,0,0,3.3.7A3,3,0,0,0,10.87,50.74Zm.07,0a3.07,3.07,0,0,1-2.62,2.13,6.1,6.1,0,0,1-3.51-.53,4.38,4.38,0,0,1-2.5-2.62,4,4,0,0,1-.07-1,6.11,6.11,0,0,1,.19-.93l.5-1.71c.36-1.14.72-2.28,1.12-3.45a18.79,18.79,0,0,1,.69-1.79c.27-.6.6-1.13.85-1.63a25.4,25.4,0,0,0,1.16-3.14l1-3.29-.59,0a3,3,0,0,1,3-2.23,9.09,9.09,0,0,1,3.63.82h0a3.31,3.31,0,0,1,2,1.82,3.48,3.48,0,0,1,0,2.69l-1.63,5-1.63,4.95C12,47.44,11.47,49.1,10.94,50.76Z"/><path class="cls-1" d="M7.57,22.7C6.63,24.78,5.78,28,8.65,29l10,3.45L7.2,65.44c-8.95,1.92-6.75,16,2.44,15.06,5.75-.33,9-7.42,5.62-12,.23-.86,12.37-35.4,12.45-36.2.94-2.08,1.79-5.31-1.08-6.25L11.47,20.8A3.07,3.07,0,0,0,7.57,22.7Zm4.95,50.1c.13,4.31-6.65,4.42-6.65.11S12.51,68.49,12.52,72.8Z"/><path class="cls-2" d="M7.6,22.72a8.52,8.52,0,0,0-.87,3.49,2.9,2.9,0,0,0,.49,1.69,2.85,2.85,0,0,0,1.45,1V29c1.66.57,3.33,1.19,5,1.68s3.29,1.09,4.95,1.65l.07,0,0,.07L7.41,65.52l0,.11-.13,0a8.55,8.55,0,0,0-2.19.84A6.41,6.41,0,0,0,3.3,68a7.22,7.22,0,0,0-1.53,4.36c-.13,3.11,1.62,6.42,4.61,7.46A7.87,7.87,0,0,0,11,80a6.87,6.87,0,0,0,3.75-2.59,7.73,7.73,0,0,0,1.55-4.32A6.9,6.9,0,0,0,15,68.7l-.1-.14,0-.15c1-3.07,2.05-6.06,3.1-9.08l3.15-9,3.14-9,1.6-4.51c.51-1.48,1.08-3.06,1.52-4.47l0-.09a8.51,8.51,0,0,0,.9-3.39,2.74,2.74,0,0,0-.45-1.59,2.7,2.7,0,0,0-1.35-.95l0-.41-5-1.65c-.84-.26-1.7-.52-2.53-.73s-1.6-.46-2.41-.73L11.82,21a3.22,3.22,0,0,0-2.49-.09A3,3,0,0,0,7.6,22.72Zm-.07,0a3.15,3.15,0,0,1,1.75-1.88,3.33,3.33,0,0,1,2.59.05l5,1.69c.83.29,1.7.61,2.52,1s1.59.67,2.4,1l4.87,1.77,0-.41a3.06,3.06,0,0,1,1.59,1.09,3.17,3.17,0,0,1,.56,1.85A9,9,0,0,1,28,32.41l0-.08c-.46,1.64-1,3.08-1.46,4.61L25,41.49c-1,3-2.08,6-3.12,9L15.59,68.59l-.05-.3A7.67,7.67,0,0,1,17,73.08a8.38,8.38,0,0,1-1.71,4.66,7.47,7.47,0,0,1-4.1,2.79,8.44,8.44,0,0,1-4.95-.15,7.14,7.14,0,0,1-3.75-3.22,8.93,8.93,0,0,1-1.18-4.79,7.75,7.75,0,0,1,1.66-4.64,7.06,7.06,0,0,1,1.9-1.63,8.88,8.88,0,0,1,2.33-.88L7,65.37l11.57-33,.05.09c-1.66-.59-3.34-1.13-5-1.8s-3.27-1.19-4.93-1.77V29A3,3,0,0,1,7.14,28a3.06,3.06,0,0,1-.51-1.74A8.73,8.73,0,0,1,7.53,22.69Z"/><path class="cls-2" d="M12.55,72.8a3.36,3.36,0,0,1-.89,2.42,3.59,3.59,0,0,1-2.41,1.06,3.7,3.7,0,0,1-2.56-.86,3.41,3.41,0,0,1-1.12-2.51,3.49,3.49,0,0,1,.95-2.63,3.68,3.68,0,0,1,2.62-1,3.46,3.46,0,0,1,2.53,1.08A3.49,3.49,0,0,1,12.55,72.8Zm-.07,0a2.8,2.8,0,0,0-1.08-2.18A3.55,3.55,0,0,0,9.15,70,3.34,3.34,0,0,0,7,70.82a2.79,2.79,0,0,0-.86,2.08A2.88,2.88,0,0,0,7,75.05a3.28,3.28,0,0,0,2.23.85,3.45,3.45,0,0,0,2.32-.8A2.89,2.89,0,0,0,12.48,72.8Z"/><path class="cls-1" d="M49.88,70.57l-15.22-5a3.07,3.07,0,0,0-3.88,1.95c-.91,2.09-1.72,5.33,1.17,6.23l15.23,5C51.28,80.17,54,71.88,49.88,70.57Z"/><path class="cls-2" d="M49.87,70.61c-1.65-.54-3.29-1.11-5-1.62l-5-1.57-5-1.57a3.05,3.05,0,0,0-2.39,0A2.83,2.83,0,0,0,31,67.57h0v0A8.58,8.58,0,0,0,30.21,71,2.43,2.43,0,0,0,32,73.44L32,74l3.39,1.13a32.24,32.24,0,0,0,3.54,1c.62.11,1.2.14,1.72.23a11.07,11.07,0,0,1,1.56.38c1,.31,2.14.68,3.23,1l1.63.58a6.9,6.9,0,0,0,.78.2,3.31,3.31,0,0,0,.77,0,4,4,0,0,0,2.44-2,5.81,5.81,0,0,0,.75-3.29A3,3,0,0,0,49.87,70.61Zm0-.07A3.07,3.07,0,0,1,52,73.19a6.07,6.07,0,0,1-.58,3.5,4.36,4.36,0,0,1-2.66,2.46,4,4,0,0,1-1,.06,6.06,6.06,0,0,1-.93-.21l-1.7-.52L41.7,77.31a17.43,17.43,0,0,1-1.77-.73c-.59-.28-1.12-.61-1.62-.87a23.75,23.75,0,0,0-3.12-1.21l-3.27-1.08-.06.59a3,3,0,0,1-2.19-3,9,9,0,0,1,.89-3.63v0a3.31,3.31,0,0,1,1.86-2,3.41,3.41,0,0,1,2.68,0L40,67.17,45,68.88C46.59,69.46,48.25,70,49.89,70.54Z"/><path class="cls-1" d="M21.4,73.47c2.09.91,5.33,1.72,6.23-1.17l3.32-10,33.19,11c2,8.92,16.14,6.53,15-2.65-.4-5.75-7.53-8.92-12.07-5.46-.87-.22-35.57-11.87-36.37-11.94-2.09-.91-5.33-1.72-6.24,1.17l-5,15.23A3.06,3.06,0,0,0,21.4,73.47Zm50-5.64c4.31-.19,4.51,6.58.2,6.64S67.12,67.89,71.43,67.83Z"/><path class="cls-2" d="M21.42,73.44a8.55,8.55,0,0,0,3.5.82,2.88,2.88,0,0,0,1.68-.52,2.84,2.84,0,0,0,1-1.46h.11c.54-1.67,1.14-3.35,1.61-5.06s1-3.3,1.57-5l0-.07.07,0L64.21,73l.12,0,0,.13a9,9,0,0,0,.87,2.18,6.44,6.44,0,0,0,1.56,1.73,7.21,7.21,0,0,0,4.37,1.47c3.12.09,6.41-1.71,7.41-4.71a8,8,0,0,0,0-4.61A6.88,6.88,0,0,0,76,65.54a7.75,7.75,0,0,0-4.34-1.49,6.83,6.83,0,0,0-4.32,1.37l-.15.11-.15,0c-3.08-1-6.08-2-9.12-3l-9.08-3-9.08-3-4.54-1.53c-1.49-.5-3.07-1-4.49-1.46l-.08,0a8.45,8.45,0,0,0-3.4-.85,2.71,2.71,0,0,0-1.59.47,2.75,2.75,0,0,0-.94,1.36l-.41,0-1.57,5c-.26.84-.5,1.7-.7,2.54s-.43,1.61-.7,2.41l-1.65,4.9a3.14,3.14,0,0,0,0,2.48A3,3,0,0,0,21.42,73.44Zm0,.07a3.16,3.16,0,0,1-1.9-1.73,3.28,3.28,0,0,1,0-2.59l1.62-5c.28-.85.59-1.72.94-2.54s.64-1.6.93-2.41l1.7-4.9-.41,0a3.13,3.13,0,0,1,1.07-1.61,3.26,3.26,0,0,1,1.84-.58,8.85,8.85,0,0,1,3.64.82l-.09,0c1.65.44,3.09.93,4.64,1.41l4.56,1.45c3,1,6.06,2,9.09,3l18.14,6-.29.06a7.63,7.63,0,0,1,4.76-1.48A8.46,8.46,0,0,1,76.33,65a7.54,7.54,0,0,1,2.85,4.06,8.6,8.6,0,0,1-.08,5,7.17,7.17,0,0,1-3.17,3.79,9,9,0,0,1-4.78,1.25,7.73,7.73,0,0,1-4.66-1.6,6.86,6.86,0,0,1-1.65-1.87,8.58,8.58,0,0,1-.92-2.32l.15.16L30.92,62.35l.1-.05c-.57,1.67-1.09,3.36-1.74,5s-1.14,3.29-1.7,5h.1a2.73,2.73,0,0,1-2.76,2A8.79,8.79,0,0,1,21.39,73.51Z"/><path class="cls-2" d="M71.43,67.79a3.38,3.38,0,0,1,2.42.86,3.53,3.53,0,0,1,1.1,2.4,3.73,3.73,0,0,1-.83,2.57,3.39,3.39,0,0,1-2.49,1.15A3.5,3.5,0,0,1,69,73.86a3.67,3.67,0,0,1-1.07-2.6,3.35,3.35,0,0,1,3.51-3.47Zm0,.08A2.76,2.76,0,0,0,69.27,69a3.55,3.55,0,0,0-.6,2.27,3.32,3.32,0,0,0,.85,2.1,2.77,2.77,0,0,0,2.1.83,2.87,2.87,0,0,0,2.14-.87,3.27,3.27,0,0,0,.81-2.24,3.38,3.38,0,0,0-.83-2.3A2.89,2.89,0,0,0,71.43,67.87Z"/><path class="cls-2" d="M29.94,9.67q5.5,1.92,11,3.79l2.76.94a6.92,6.92,0,0,0,2.74.66,3.18,3.18,0,0,0,2.13-1.65,9.54,9.54,0,0,0,1-2.66h0a2.89,2.89,0,0,0-1.18-3.38,12.12,12.12,0,0,0-1.87-.72L44.63,6l-7.77-2.7c-1.29-.45-2.59-.91-3.87-1.39a2.89,2.89,0,0,0-3.49.88A6,6,0,0,0,28,6.42a3.78,3.78,0,0,0,.4,2A2.9,2.9,0,0,0,29.94,9.67Zm0,.05a3,3,0,0,1-1.58-1.29,4,4,0,0,1-.46-2,6.13,6.13,0,0,1,1.38-3.87A3.74,3.74,0,0,1,31,1.33a3,3,0,0,1,1.08-.13,8.07,8.07,0,0,1,1,.25c1.3.42,2.6.88,3.89,1.34l7.75,2.75,1.94.69A12.56,12.56,0,0,1,48.66,7,3.27,3.27,0,0,1,50,10.85v0a10.15,10.15,0,0,1-1.1,2.74,3.43,3.43,0,0,1-2.36,1.77,3.64,3.64,0,0,1-1.5-.2l-1.37-.49-2.74-1C37.25,12.32,33.59,11,29.93,9.72Z"/><path class="cls-2" d="M30,9.64c3.62,1.22,7.25,2.44,10.88,3.62l2.73.89a9.54,9.54,0,0,0,2.71.71,2.81,2.81,0,0,0,2.1-1.56,9.41,9.41,0,0,0,1-2.63h0A2.62,2.62,0,0,0,49.1,8.4a3,3,0,0,0-2-1.25l-4.78-1.6C39.19,4.46,36,3.39,32.87,2.19h0a2.53,2.53,0,0,0-2.58.23,5.27,5.27,0,0,0-1.71,2.25,6,6,0,0,0-.38,1.39,3.87,3.87,0,0,0,0,1.44,3.29,3.29,0,0,0,.58,1.31A3.44,3.44,0,0,0,30,9.64Zm0,0a3.27,3.27,0,0,1-1.22-.83,3.31,3.31,0,0,1-.63-1.34,5.37,5.37,0,0,1,.26-2.94,5.49,5.49,0,0,1,1.72-2.44,2.87,2.87,0,0,1,3-.35h0L42.52,5.1l4.75,1.66a5.36,5.36,0,0,1,1.2.5,2.76,2.76,0,0,1,1,.94,3,3,0,0,1,.29,2.57h0a9.8,9.8,0,0,1-1.06,2.7,3.12,3.12,0,0,1-2.36,1.68,9.33,9.33,0,0,1-2.81-.75l-2.71-.94C37.17,12.17,33.55,10.93,29.94,9.68Z"/><path class="cls-2" d="M29.91,9.75a3.52,3.52,0,0,1-1.14-.69,2.76,2.76,0,0,1-.7-1.13,5,5,0,0,1-.17-2.64,6.55,6.55,0,0,1,1-2.47A4,4,0,0,1,31,1.14h0A3.35,3.35,0,0,1,32.1,1h0a17.38,17.38,0,0,1,2.67.77l2.61.89,5.22,1.83,5.22,1.84A4.59,4.59,0,0,1,49.12,7a3.75,3.75,0,0,1,.93,1.13A3.56,3.56,0,0,1,50.26,11l-.44-.15v0l.45.12a10,10,0,0,1-1.12,2.81,3.82,3.82,0,0,1-2.41,1.9,3.23,3.23,0,0,1-1.58-.1c-.5-.16-.94-.34-1.42-.5L41,14C37.29,12.57,33.62,11.12,29.91,9.75Zm0,0,11.2,3.86,2.79,1a5.41,5.41,0,0,0,2.73.59,3.37,3.37,0,0,0,2.09-1.68,10.27,10.27,0,0,0,1.09-2.67l.45.13v0l-.44-.15a3.1,3.1,0,0,0-.17-2.49,3.25,3.25,0,0,0-2-1.62L42.51,4.79,37.31,2.9,34.7,2a17.29,17.29,0,0,0-2.62-.82h0A3.26,3.26,0,0,0,31,1.3h0a3.86,3.86,0,0,0-2,1.58,6.07,6.07,0,0,0-1,2.42,5,5,0,0,0,.14,2.6A2.9,2.9,0,0,0,29.93,9.71Z"/><path class="cls-2" d="M58.32,6.78a8.52,8.52,0,0,0-3.49-.9,2.85,2.85,0,0,0-1.7.5,2.92,2.92,0,0,0-1,1.44h-.06c-.58,1.66-1.19,3.32-1.72,5s-1.13,3.3-1.7,5v0h0l-33-11.49-.07,0,0-.09A8.4,8.4,0,0,0,14.61,4a6.41,6.41,0,0,0-1.54-1.78A7.26,7.26,0,0,0,8.68.65,8.47,8.47,0,0,0,4.12,1.77a6.62,6.62,0,0,0-3,3.51A8,8,0,0,0,1,9.94a7,7,0,0,0,2.61,3.83,7.91,7.91,0,0,0,4.37,1.6,7.09,7.09,0,0,0,4.44-1.3l.09-.07.09,0,9,3.16,9,3.18,9,3.17c3,1.05,6,2.18,9,3.13l0,0a8.71,8.71,0,0,0,3.43.91,2.85,2.85,0,0,0,1.64-.46,2.78,2.78,0,0,0,1-1.39l.27,0,1.69-5c.58-1.68,1-3.34,1.57-4.93L60,11a3.15,3.15,0,0,0,.09-2.5A3,3,0,0,0,58.32,6.78Zm0,0A3.11,3.11,0,0,1,60.2,8.49a3.32,3.32,0,0,1-.07,2.57l-1.71,5c-.58,1.7-1.32,3.32-1.89,4.92l-1.77,4.88.28,0A3,3,0,0,1,54,27.38a3.1,3.1,0,0,1-1.81.54,8.85,8.85,0,0,1-3.58-.9l.06,0c-3.13-1-6.08-2-9.12-3.05l-9-3.17-18-6.37.18,0a7.47,7.47,0,0,1-4.71,1.37,8.31,8.31,0,0,1-4.6-1.7A7.41,7.41,0,0,1,.58,10,8.41,8.41,0,0,1,.75,5.15,7.08,7.08,0,0,1,3.94,1.46,8.88,8.88,0,0,1,8.69.31,7.62,7.62,0,0,1,13.27,2a6.76,6.76,0,0,1,1.61,1.88,8.7,8.7,0,0,1,.86,2.31l-.1-.11,33,11.67-.06,0c.59-1.66,1.15-3.33,1.8-5s1.19-3.28,1.78-4.94h-.07a2.94,2.94,0,0,1,1-1.48,3,3,0,0,1,1.74-.5A8.58,8.58,0,0,1,58.34,6.73Z"/><path class="cls-2" d="M8.21,11.5a3.31,3.31,0,0,1-2.39-.9,3.68,3.68,0,0,1-.14-4.91A3.35,3.35,0,0,1,8.13,4.63a3.36,3.36,0,0,1,2.54,1,3.64,3.64,0,0,1,0,5A3.35,3.35,0,0,1,8.21,11.5Zm0-.05a2.9,2.9,0,0,0,2.23-1,3.49,3.49,0,0,0,.72-2.3,3.37,3.37,0,0,0-.85-2.2A2.88,2.88,0,0,0,8.14,5a3,3,0,0,0-2.22.88,3.41,3.41,0,0,0-.86,2.28,3.42,3.42,0,0,0,.84,2.34A3,3,0,0,0,8.21,11.45Z"/><path class="cls-2" d="M58.31,6.81a8.68,8.68,0,0,0-3.45-.88,2.85,2.85,0,0,0-1.69.48,2.82,2.82,0,0,0-1,1.43v0H52l0,0-3.38,10,0,.05,0,0L15.35,6.51l-.08,0V6.4A6.82,6.82,0,0,0,13,2.47,7.1,7.1,0,0,0,8.77.91,8.22,8.22,0,0,0,4.34,2a6.52,6.52,0,0,0-3,3.38,7.73,7.73,0,0,0-.14,4.52,6.73,6.73,0,0,0,2.55,3.69,7.6,7.6,0,0,0,4.26,1.51,6.73,6.73,0,0,0,4.27-1.37l.08-.06.11,0q9.1,3.14,18.18,6.34l9.07,3.2c3,1.11,6,2.2,9.05,3.24h0a8.41,8.41,0,0,0,3.23.91A2.6,2.6,0,0,0,53.62,27a2.54,2.54,0,0,0,1-1.29l0-.1h.11l.41,0-.15.1,1.26-3.68c.43-1.23.79-2.47,1.16-3.71s.76-2.49,1.23-3.69L60,11h0a3.19,3.19,0,0,0,.11-2.46A3,3,0,0,0,58.31,6.81Zm0,0A3.1,3.1,0,0,1,60.14,8.5,3.27,3.27,0,0,1,60.06,11h0L58.77,14.7c-.46,1.21-.8,2.46-1.18,3.69s-.71,2.51-1.13,3.73l-1.22,3.7,0,.1H55.1l-.41,0,.15-.09a2.62,2.62,0,0,1-2.78,1.89,8.53,8.53,0,0,1-3.37-.9h0q-4.59-1.52-9.11-3.14l-9.07-3.2q-9.06-3.23-18.15-6.38l.19,0A7.1,7.1,0,0,1,8,15.46a7.9,7.9,0,0,1-4.49-1.59A7.1,7.1,0,0,1,.86,10,8.1,8.1,0,0,1,1,5.2,6.86,6.86,0,0,1,4.16,1.64,8.59,8.59,0,0,1,8.78.57a7.32,7.32,0,0,1,4.43,1.66,6.5,6.5,0,0,1,1.53,1.85,8.79,8.79,0,0,1,.81,2.25l-.1-.11,33.2,11.6-.06,0,3.4-10v0h.13l0,0a2.9,2.9,0,0,1,1-1.47,3,3,0,0,1,1.73-.48A8.74,8.74,0,0,1,58.33,6.76Z"/><path class="cls-2" d="M58.36,6.69a3.23,3.23,0,0,1,1.88,1.76,3.33,3.33,0,0,1,0,2.59l-1.7,5q-.95,2.46-2,4.89l-1.8,4.94,0-.07.41,0h.07l0,.07a3.26,3.26,0,0,1-1.09,1.59,3.18,3.18,0,0,1-1.83.6,8.94,8.94,0,0,1-3.74-.89l.06-.16.08,0,0,.16L44,25.75l-4.55-1.51-9-3.15L12.35,14.74l-.62-.22.65-.12.3-.05.76-.15-.63.46A7.79,7.79,0,0,1,8,16.1a8.64,8.64,0,0,1-4.77-1.73A7.69,7.69,0,0,1,.31,10.19,8.8,8.8,0,0,1,.44,5.11,7.35,7.35,0,0,1,3.72,1.24,9.09,9.09,0,0,1,8.66,0a7.85,7.85,0,0,1,4.79,1.71,7.23,7.23,0,0,1,1.69,2A9.24,9.24,0,0,1,16,6.09l.21.9-.61-.69-.15-.17-.59-.68.85.31c5.49,2,11,3.87,16.46,5.87l16.44,5.95.28.1-.27.13-.09,0L48.3,18l.1-.28,3.67-9.92.06.09h-.19l0-.08A3,3,0,0,1,53,6.27a3,3,0,0,1,1.77-.51A8.91,8.91,0,0,1,58.36,6.69Zm0,0a8.57,8.57,0,0,0-3.53-.89,2.71,2.71,0,0,0-2.72,2L52,7.73h.18l0,.08-3.56,10-.17-.16.1,0v.22l-16.5-5.76c-5.51-1.9-11-3.9-16.48-5.85l.26-.38L16,6l-.4.21a8.76,8.76,0,0,0-.85-2.29,6.8,6.8,0,0,0-1.58-1.84A7.49,7.49,0,0,0,8.64.45a8.69,8.69,0,0,0-4.7,1.16A7,7,0,0,0,.83,5.25,8.48,8.48,0,0,0,.7,10.09a7.33,7.33,0,0,0,2.72,4A8.22,8.22,0,0,0,8,15.72a7.4,7.4,0,0,0,4.63-1.34l.14.31-.3.06,0-.34,18,6.42,9,3.18,4.53,1.55,4.55,1.49,0,.16-.08,0,.06-.16a8.86,8.86,0,0,0,3.66.9,2.86,2.86,0,0,0,2.82-2.08l.05.07-.41,0h-.07l0-.07,1.83-4.93q1-2.43,2-4.88l1.72-5a3.22,3.22,0,0,0,0-2.53A3.07,3.07,0,0,0,58.34,6.74Z"/><path class="cls-2" d="M8.21,11.54a3.5,3.5,0,0,1-2.54-1A3.65,3.65,0,0,1,4.63,8a3.78,3.78,0,0,1,1-2.62,3.75,3.75,0,0,1,2.65-1,3.62,3.62,0,0,1,2.68,1,3.79,3.79,0,0,1,1,2.7,3.57,3.57,0,0,1-1.18,2.6A3.79,3.79,0,0,1,8.21,11.54Zm0,0a3.27,3.27,0,0,0,2.45-1,3.48,3.48,0,0,0,.87-2.41,3.53,3.53,0,0,0-.9-2.36,3.16,3.16,0,0,0-2.32-1,3.35,3.35,0,0,0-2.42.86A3.47,3.47,0,0,0,4.88,8a3.48,3.48,0,0,0,.86,2.5A3.22,3.22,0,0,0,8.21,11.49Z"/><path class="cls-2" d="M8.21,11.42a2.67,2.67,0,0,0,2.09-1,3.44,3.44,0,0,0,.61-2.24,3.19,3.19,0,0,0-.85-2.1A2.7,2.7,0,0,0,8,5.33,2.6,2.6,0,0,0,6,6.29a3.24,3.24,0,0,0-.65,2.1,3.36,3.36,0,0,0,.72,2.12A2.74,2.74,0,0,0,8.21,11.42Zm0,.05a3.22,3.22,0,0,1-2.3-.77,3.41,3.41,0,0,1-1-2.29A3.5,3.5,0,0,1,5.65,6,3,3,0,0,1,8,4.93a3,3,0,0,1,2.33.91,3.48,3.48,0,0,1,.87,2.33,3.65,3.65,0,0,1-.78,2.31A3,3,0,0,1,8.21,11.47Z"/><path class="cls-2" d="M10.88,50.74l3.06-10,1.52-5a3.09,3.09,0,0,0,0-2.44,3,3,0,0,0-1.8-1.59h0A8.43,8.43,0,0,0,10.17,31a2.78,2.78,0,0,0-1.6.52,2.76,2.76,0,0,0-.9,1.41l-.39,0c-.69,2.26-1.48,4.49-2,6.88a26,26,0,0,1-.72,3.31l-1,3.28L3,48a6.3,6.3,0,0,0-.19.81,3.66,3.66,0,0,0,0,.81A4,4,0,0,0,5,52.06a5.7,5.7,0,0,0,3.34.67A3,3,0,0,0,10.88,50.74Zm0,0a3.07,3.07,0,0,1-2.61,2.1,6,6,0,0,1-3.48-.56,4.33,4.33,0,0,1-2.42-2.59,4.12,4.12,0,0,1-.06-.93,6,6,0,0,1,.19-.9l.5-1.7,1.09-3.42a26,26,0,0,1,1.38-3.4c.84-2.07,1.45-4.31,2.16-6.52l-.39,0a3,3,0,0,1,1-1.59,3.17,3.17,0,0,1,1.81-.58,8.85,8.85,0,0,1,3.6.81h0a3.25,3.25,0,0,1,2,1.78,3.36,3.36,0,0,1,0,2.64l-1.6,5Z"/><path class="cls-2" d="M10.85,50.73c.75-2.5,1.54-5,2.25-7.49l2.17-7.52h0a2.9,2.9,0,0,0,0-2.26A2.72,2.72,0,0,0,13.57,32h0a8.57,8.57,0,0,0-3.24-.72,2.61,2.61,0,0,0-1.51.45A2.37,2.37,0,0,0,8,33l0,.15H7.75l-.58,0,.2-.14-1.2,4a18.83,18.83,0,0,0-.87,4,21.43,21.43,0,0,1-1,4c-.2.66-.39,1.33-.63,2l-.34,1a5.76,5.76,0,0,0-.28,1v0a3.61,3.61,0,0,0,0,.73v0a3.39,3.39,0,0,0,1.35,1.93,6.29,6.29,0,0,0,2.24,1,4.39,4.39,0,0,0,2.46-.09A2.77,2.77,0,0,0,10.85,50.73Zm.05,0a2.85,2.85,0,0,1-1.72,1.8,4.73,4.73,0,0,1-2.53.17,6.25,6.25,0,0,1-2.37-1,3.81,3.81,0,0,1-1.55-2.09h0v0a3.49,3.49,0,0,1,0-.81v0a6.64,6.64,0,0,1,.26-1l.31-1,.59-2a20.51,20.51,0,0,0,1-4,17.7,17.7,0,0,1,.92-4.06L7,32.85l0-.16.16,0,.58,0-.2.14a2.79,2.79,0,0,1,1-1.5,2.89,2.89,0,0,1,1.72-.49,8.83,8.83,0,0,1,3.37.77h0a3,3,0,0,1,1.86,1.66,3.23,3.23,0,0,1,0,2.48h0l-2.3,7.47C12.46,45.77,11.68,48.26,10.9,50.74Z"/><path class="cls-2" d="M11,50.77A2.94,2.94,0,0,1,9.15,52.7a5.31,5.31,0,0,1-2.71.22,6.74,6.74,0,0,1-2.54-1,4,4,0,0,1-1.68-2.14h0a3.1,3.1,0,0,1-.05-1.14c.08-.36.13-.75.24-1.1.21-.72.4-1.44.63-2.15.46-1.42.88-2.85,1.45-4.24.28-.7.67-1.34,1-2A18.4,18.4,0,0,0,6.27,37c.46-1.41.88-2.85,1.32-4.27l.17.26L7.17,33H6.92L7,32.72A3.43,3.43,0,0,1,8.1,31,3.31,3.31,0,0,1,10,30.33a8.93,8.93,0,0,1,3.86.82l-.18.46h0l.16-.47A3.57,3.57,0,0,1,15.94,33a3.62,3.62,0,0,1,.16,2.76c-.55,1.7-1.14,3.34-1.72,5l-1.74,5C12.06,47.4,11.53,49.09,11,50.77Zm-.05,0,1.54-5.07L14,40.61c.53-1.68,1-3.4,1.6-5a3.14,3.14,0,0,0-.14-2.39,3.07,3.07,0,0,0-1.8-1.57l.16-.47h0l-.18.46A8.83,8.83,0,0,0,10,30.78a2.87,2.87,0,0,0-1.67.57,3,3,0,0,0-1,1.49l-.17-.26.58.05.25,0L8,32.89c-.45,1.42-.88,2.84-1.36,4.26a18,18,0,0,1-.83,2.1c-.32.67-.72,1.31-1,2-.58,1.36-1,2.79-1.48,4.2-.24.71-.45,1.42-.67,2.14a4.16,4.16,0,0,0-.22,2.15h0A3.91,3.91,0,0,0,4,51.81a6.41,6.41,0,0,0,2.49,1,5.27,5.27,0,0,0,2.67-.19A2.91,2.91,0,0,0,10.92,50.75Z"/><path class="cls-2" d="M7.59,22.71a8.58,8.58,0,0,0-.88,3.5,3,3,0,0,0,.5,1.7,3,3,0,0,0,1.45,1V29c1.66.57,3.33,1.18,5,1.7s3.3,1.11,5,1.67l.05,0,0,.05L7.34,65.49l0,.08-.08,0A8,8,0,0,0,5,66.44,6.73,6.73,0,0,0,3.23,68a7.35,7.35,0,0,0-1.54,4.4,8.54,8.54,0,0,0,1.13,4.56,6.7,6.7,0,0,0,3.53,3,8,8,0,0,0,4.66.12,7.11,7.11,0,0,0,3.82-2.63,7.89,7.89,0,0,0,1.58-4.38,7,7,0,0,0-1.32-4.42l-.07-.1,0-.09,3.12-9.06,3.13-9.05,3.14-9c1-3,2.15-6,3.09-9v-.06a8.65,8.65,0,0,0,.9-3.43,2.56,2.56,0,0,0-1.86-2.61l0-.27-5-1.67c-1.69-.57-3.35-1-4.94-1.54L11.82,21a3.19,3.19,0,0,0-2.5-.08A3,3,0,0,0,7.59,22.71Zm0,0a3.12,3.12,0,0,1,1.75-1.86,3.28,3.28,0,0,1,2.57.05l5,1.7c1.69.56,3.32,1.29,4.92,1.86l4.89,1.75,0-.28A3.1,3.1,0,0,1,28.22,27a3.18,3.18,0,0,1,.54,1.81,8.83,8.83,0,0,1-.88,3.58v0c-.94,3.13-2,6.08-3,9.13l-3.13,9L15.47,68.55l0-.18a7.47,7.47,0,0,1,1.4,4.7,8.29,8.29,0,0,1-1.68,4.61,7.38,7.38,0,0,1-4,2.76,8.41,8.41,0,0,1-4.89-.15,7.07,7.07,0,0,1-3.7-3.17,8.78,8.78,0,0,1-1.17-4.75A7.61,7.61,0,0,1,3,67.78a6.88,6.88,0,0,1,1.87-1.61,8.27,8.27,0,0,1,2.31-.87l-.12.09,11.53-33,0,.07c-1.66-.59-3.34-1.14-5-1.78s-3.29-1.17-4.95-1.75V29a2.74,2.74,0,0,1-2-2.77A8.81,8.81,0,0,1,7.54,22.69Z"/><path class="cls-2" d="M12.54,72.8a3.32,3.32,0,0,1-.89,2.4,3.7,3.7,0,0,1-4.91.16,3.61,3.61,0,0,1-.14-5,3.65,3.65,0,0,1,2.54-1,3.57,3.57,0,0,1,2.49,1A3.42,3.42,0,0,1,12.54,72.8Zm0,0a3,3,0,0,0-1-2.23,3.53,3.53,0,0,0-2.3-.7,3.38,3.38,0,0,0-2.2.86,2.91,2.91,0,0,0-.88,2.17A3,3,0,0,0,7,75.11,3.31,3.31,0,0,0,9.24,76a3.38,3.38,0,0,0,2.33-.84A3,3,0,0,0,12.49,72.8Z"/><path class="cls-2" d="M7.62,22.72a8.57,8.57,0,0,0-.86,3.46,2.89,2.89,0,0,0,.48,1.69,2.93,2.93,0,0,0,1.44,1h0V29l0,0,10.07,3.34h0v0L7.51,65.68l0,.08-.09,0a6.79,6.79,0,0,0-3.91,2.27,7.09,7.09,0,0,0-1.55,4.24A8.25,8.25,0,0,0,3,76.72,6.46,6.46,0,0,0,6.4,79.66a7.73,7.73,0,0,0,4.52.12,6.72,6.72,0,0,0,3.68-2.56A7.63,7.63,0,0,0,16.09,73a6.74,6.74,0,0,0-1.39-4.26l-.06-.09,0-.11q3.09-9.12,6.25-18.2l3.17-9.09c1.09-3,2.17-6,3.19-9.06v0h0a8.32,8.32,0,0,0,.9-3.23,2.63,2.63,0,0,0-.38-1.56,2.59,2.59,0,0,0-1.3-.94l-.1,0v-.11l0-.41.09.15-3.68-1.24c-1.23-.43-2.47-.78-3.71-1.15s-2.49-.75-3.7-1.21L11.8,21.06h0A3.12,3.12,0,0,0,9.34,21,3,3,0,0,0,7.62,22.72Zm0,0a3,3,0,0,1,1.73-1.82,3.22,3.22,0,0,1,2.53.07h0l3.68,1.27c1.22.45,2.46.79,3.7,1.16s2.51.7,3.73,1.12l3.7,1.2.11,0v.11l0,.41-.09-.15a2.85,2.85,0,0,1,1.45,1,3,3,0,0,1,.46,1.73,9,9,0,0,1-.89,3.38v0c-1,3.07-2,6.1-3.1,9.13l-3.16,9.08q-3.19,9.09-6.3,18.19l0-.2A7.12,7.12,0,0,1,16.5,73a7.9,7.9,0,0,1-1.57,4.49A7.11,7.11,0,0,1,11,80.16,8.1,8.1,0,0,1,6.27,80,6.78,6.78,0,0,1,2.7,76.89a8.44,8.44,0,0,1-1.09-4.61,7.35,7.35,0,0,1,1.64-4.44A6.52,6.52,0,0,1,5.09,66.3a8.72,8.72,0,0,1,2.24-.81l-.1.09L18.67,32.34l0,.06L8.65,29h0V28.9l0,0a2.84,2.84,0,0,1-1.47-1,2.9,2.9,0,0,1-.49-1.72A8.56,8.56,0,0,1,7.58,22.71Z"/><path class="cls-2" d="M7.51,22.68a3.14,3.14,0,0,1,1.75-1.89,3.3,3.3,0,0,1,2.58,0l5,1.69c1.65.61,3.28,1.26,4.9,1.92l5,1.78-.07.05,0-.41v-.07l.07,0a3,3,0,0,1,2.2,2.91A8.92,8.92,0,0,1,28,32.44l-.16,0,0-.09.17.05-1.44,4.57-1.5,4.55L22,50.54,15.76,68.65l-.22.62-.12-.65-.05-.3-.15-.76.46.63A7.71,7.71,0,0,1,17.13,73a8.51,8.51,0,0,1-1.7,4.77,7.76,7.76,0,0,1-4.17,2.9,8.79,8.79,0,0,1-5.08-.11A7.32,7.32,0,0,1,2.3,77.34,9.1,9.1,0,0,1,1,72.41a8,8,0,0,1,1.69-4.8,7.24,7.24,0,0,1,2-1.7A9,9,0,0,1,7.1,65l.89-.2-.69.61-.16.14-.68.6.3-.85c1.94-5.5,3.82-11,5.8-16.49l5.88-16.47.1-.27.13.26,0,.1.13.27-.28-.1L8.63,29l.08-.06v.19l-.07,0A3,3,0,0,1,7.11,28a3.05,3.05,0,0,1-.52-1.77A8.58,8.58,0,0,1,7.51,22.68Zm0,0a8.67,8.67,0,0,0-.87,3.53,2.92,2.92,0,0,0,.52,1.7,2.89,2.89,0,0,0,1.46,1l-.09,0v-.18l.08,0,10,3.51-.15.17,0-.09h.23L13,49C11.1,54.46,9.13,60,7.2,65.45l-.37-.26L7,65.05l.21.4a8.25,8.25,0,0,0-2.28.86,6.76,6.76,0,0,0-1.83,1.58,7.48,7.48,0,0,0-1.6,4.53,8.6,8.6,0,0,0,1.18,4.7,7,7,0,0,0,3.65,3.09,8.39,8.39,0,0,0,4.84.11,7.31,7.31,0,0,0,3.95-2.74A8.16,8.16,0,0,0,16.76,73,7.39,7.39,0,0,0,15.4,68.4l.31-.14.06.3-.34,0,6.33-18.08,3.15-9.05,1.53-4.54L27.9,32.3l.17.05,0,.08-.16,0a8.77,8.77,0,0,0,.89-3.67,2.88,2.88,0,0,0-2.1-2.81l.08,0,0,.41v.07l-.07,0L21.69,24.5c-1.62-.66-3.25-1.31-4.89-1.93l-5-1.7a3.34,3.34,0,0,0-2.54,0A3.14,3.14,0,0,0,7.55,22.7Z"/><path class="cls-2" d="M12.58,72.8a3.55,3.55,0,0,1-1,2.55A3.64,3.64,0,0,1,9,76.4a3.77,3.77,0,0,1-2.62-1,3.7,3.7,0,0,1-1-2.65,3.61,3.61,0,0,1,1-2.68A3.76,3.76,0,0,1,9.1,69a3.58,3.58,0,0,1,2.61,1.17A3.81,3.81,0,0,1,12.58,72.8Zm-.05,0a3.27,3.27,0,0,0-1-2.44,3.51,3.51,0,0,0-2.41-.86,3.5,3.5,0,0,0-2.36.91,3.16,3.16,0,0,0-1,2.32,3.34,3.34,0,0,0,.87,2.42,3.47,3.47,0,0,0,2.4,1,3.46,3.46,0,0,0,2.49-.87A3.24,3.24,0,0,0,12.53,72.8Z"/><path class="cls-2" d="M12.45,72.8a2.64,2.64,0,0,0-1-2.08,3.37,3.37,0,0,0-2.24-.6A3.15,3.15,0,0,0,7.1,71a2.7,2.7,0,0,0-.73,2.09,2.57,2.57,0,0,0,1,1.94,3.29,3.29,0,0,0,2.1.64,3.43,3.43,0,0,0,2.12-.73A2.72,2.72,0,0,0,12.45,72.8Zm.05,0a3.18,3.18,0,0,1-.75,2.31,3.44,3.44,0,0,1-2.29,1A3.54,3.54,0,0,1,7,75.39a3,3,0,0,1-1-2.31,3.08,3.08,0,0,1,.9-2.33,3.46,3.46,0,0,1,2.32-.88,3.54,3.54,0,0,1,2.31.77A2.9,2.9,0,0,1,12.5,72.8Z"/><path class="cls-2" d="M49.88,70.59,40,67.38l-5-1.59a3.09,3.09,0,0,0-2.44,0,2.9,2.9,0,0,0-1.62,1.77h0A8.79,8.79,0,0,0,30.12,71a2.82,2.82,0,0,0,.5,1.61,2.72,2.72,0,0,0,1.39.92l0,.39c2.24.73,4.45,1.55,6.84,2.15a26.16,26.16,0,0,1,3.3.77l3.26,1.06,1.64.57a5.09,5.09,0,0,0,.81.21,3.15,3.15,0,0,0,.81,0,4,4,0,0,0,2.47-2.12,5.86,5.86,0,0,0,.72-3.33A3,3,0,0,0,49.88,70.59Zm0,0A3.06,3.06,0,0,1,52,73.2a6,6,0,0,1-.61,3.46A4.32,4.32,0,0,1,48.72,79a4.24,4.24,0,0,1-.94,0,6.23,6.23,0,0,1-.9-.2l-1.69-.53-3.4-1.15a25.65,25.65,0,0,1-3.37-1.43c-2.06-.87-4.29-1.51-6.49-2.26l0,.39a3,3,0,0,1-1.57-1.08A3.08,3.08,0,0,1,29.76,71a8.94,8.94,0,0,1,.87-3.58h0a3.16,3.16,0,0,1,1.81-1.94,3.34,3.34,0,0,1,2.63,0L40,67.22Z"/><path class="cls-2" d="M49.86,70.63c-2.48-.79-5-1.62-7.45-2.37L34.93,66h0a2.91,2.91,0,0,0-2.26,0,2.71,2.71,0,0,0-1.5,1.66h0a8.76,8.76,0,0,0-.76,3.23,2.61,2.61,0,0,0,.42,1.51,2.43,2.43,0,0,0,1.29.87l.15,0v.17l-.05.58-.14-.21L36,75.1A19.5,19.5,0,0,0,40,76a21.47,21.47,0,0,1,4,1c.65.21,1.32.41,2,.66l1,.36a6.63,6.63,0,0,0,1,.29h0a2.88,2.88,0,0,0,.72,0h0a3.44,3.44,0,0,0,2-1.32,6.08,6.08,0,0,0,1.06-2.22,4.29,4.29,0,0,0,0-2.46A2.77,2.77,0,0,0,49.86,70.63Zm0,0a2.86,2.86,0,0,1,1.77,1.74,4.76,4.76,0,0,1,.13,2.54,6.17,6.17,0,0,1-1,2.35,3.75,3.75,0,0,1-2.11,1.52h0a3.63,3.63,0,0,1-.82,0h0a5,5,0,0,1-1-.27l-1-.32-2-.63a21.11,21.11,0,0,0-4-1,18.06,18.06,0,0,1-4-1l-3.92-1.33-.15,0,0-.16.05-.58.14.21a2.83,2.83,0,0,1-1.48-1A3,3,0,0,1,30,70.87a9,9,0,0,1,.83-3.36h0a3,3,0,0,1,1.69-1.83,3.19,3.19,0,0,1,2.48,0h0l7.44,2.43C44.93,68.94,47.4,69.76,49.88,70.58Z"/><path class="cls-2" d="M49.9,70.51a3,3,0,0,1,1.91,1.85A5.2,5.2,0,0,1,52,75.07a6.58,6.58,0,0,1-1,2.52,4.06,4.06,0,0,1-2.17,1.65h0a3.34,3.34,0,0,1-1.14,0c-.36-.09-.75-.14-1.1-.26-.71-.22-1.43-.42-2.13-.67-1.42-.48-2.84-.91-4.23-1.51-.69-.29-1.32-.69-2-1A17.67,17.67,0,0,0,36.1,75c-1.4-.48-2.83-.92-4.24-1.39l.25-.17,0,.59,0,.25-.24-.08a3.46,3.46,0,0,1-1.69-1.13,3.31,3.31,0,0,1-.66-1.93,8.86,8.86,0,0,1,.88-3.84l.46.18v0l-.47-.16a3.59,3.59,0,0,1,4.62-2.2c1.68.59,3.32,1.2,5,1.8l5,1.82C46.56,69.37,48.23,69.93,49.9,70.51Zm0,0-5-1.62-5-1.65c-1.68-.56-3.39-1.07-5-1.67a3.06,3.06,0,0,0-4,1.87l-.46-.16v0l.46.18a8.85,8.85,0,0,0-.88,3.64,2.93,2.93,0,0,0,.55,1.68,3,3,0,0,0,1.47,1l-.26.17.06-.58,0-.25.24.08c1.41.48,2.83.93,4.24,1.43a18.76,18.76,0,0,1,2.09.86c.66.34,1.29.74,2,1,1.35.6,2.77,1.06,4.18,1.55.7.25,1.41.47,2.12.7a4.3,4.3,0,0,0,2.15.26h0a3.92,3.92,0,0,0,2.12-1.55,6.11,6.11,0,0,0,1-2.47,5.15,5.15,0,0,0-.14-2.67A2.93,2.93,0,0,0,49.89,70.56Z"/><path class="cls-2" d="M21.41,73.45a8.73,8.73,0,0,0,3.51.83,2.68,2.68,0,0,0,2.68-2h.07c.54-1.67,1.13-3.34,1.62-5s1.07-3.32,1.61-5v0H31L64.19,73.11l.08,0,0,.09a8.24,8.24,0,0,0,.88,2.2,6.6,6.6,0,0,0,1.57,1.76,7.24,7.24,0,0,0,4.42,1.48,8.42,8.42,0,0,0,4.54-1.2,6.67,6.67,0,0,0,3-3.56,8.16,8.16,0,0,0,.06-4.67A7.11,7.11,0,0,0,76,65.45a8,8,0,0,0-4.41-1.52,7,7,0,0,0-4.4,1.39l-.09.06-.1,0-9.1-3-9.09-3-9.09-3c-3-1-6.07-2.07-9-3l-.06,0a8.66,8.66,0,0,0-3.44-.84,2.82,2.82,0,0,0-1.63.49,2.75,2.75,0,0,0-.95,1.4l-.28,0-1.59,5c-.55,1.69-.93,3.36-1.48,5l-1.64,4.91a3.15,3.15,0,0,0-.05,2.5A3,3,0,0,0,21.41,73.45Zm0,0a3.12,3.12,0,0,1-1.88-1.73,3.32,3.32,0,0,1,0-2.57l1.63-5c.54-1.7,1.25-3.33,1.79-4.94l1.68-4.92-.27,0a2.83,2.83,0,0,1,2.84-2.13,8.87,8.87,0,0,1,3.6.83l-.06,0c3.15.9,6.12,1.91,9.17,2.88l9.09,3,18.15,6L67,65a7.49,7.49,0,0,1,4.68-1.46,8.33,8.33,0,0,1,4.63,1.61,7.4,7.4,0,0,1,2.81,4A8.43,8.43,0,0,1,79,74a7.09,7.09,0,0,1-3.13,3.75A8.83,8.83,0,0,1,71.15,79a7.62,7.62,0,0,1-4.61-1.57,6.91,6.91,0,0,1-1.64-1.85,8.4,8.4,0,0,1-.9-2.3l.1.11L30.93,62.33l.06,0c-.56,1.67-1.09,3.35-1.7,5s-1.13,3.31-1.69,5h.07a3,3,0,0,1-1,1.5,3,3,0,0,1-1.73.53A8.79,8.79,0,0,1,21.39,73.5Z"/><path class="cls-2" d="M71.43,67.8a3.38,3.38,0,0,1,2.41.86,3.68,3.68,0,0,1,.22,4.91,3.6,3.6,0,0,1-5,.2,3.63,3.63,0,0,1-1-2.52,3.54,3.54,0,0,1,1-2.5A3.42,3.42,0,0,1,71.43,67.8Zm0,0a2.92,2.92,0,0,0-2.21,1.08,3.5,3.5,0,0,0-.68,2.31,3.44,3.44,0,0,0,.89,2.19,3.18,3.18,0,0,0,4.39-.08,3.36,3.36,0,0,0,.82-2.29,3.42,3.42,0,0,0-.88-2.32A3,3,0,0,0,71.43,67.85Z"/><path class="cls-2" d="M21.42,73.41a8.57,8.57,0,0,0,3.47.82,2.85,2.85,0,0,0,1.68-.51,2.82,2.82,0,0,0,1-1.45v0h.13l0,0,3.2-10.11v-.05l.05,0L64.38,72.93l.08,0,0,.08a6.78,6.78,0,0,0,2.32,3.88,7,7,0,0,0,4.27,1.49,8.23,8.23,0,0,0,4.41-1.13,6.53,6.53,0,0,0,2.89-3.43,7.73,7.73,0,0,0,.06-4.52,6.76,6.76,0,0,0-2.62-3.65,7.51,7.51,0,0,0-4.28-1.42,6.68,6.68,0,0,0-4.25,1.44l-.08.07-.11,0q-9.17-3-18.29-6l-9.13-3q-4.55-1.59-9.11-3.08h0a8.44,8.44,0,0,0-3.24-.86,2.6,2.6,0,0,0-1.55.41,2.54,2.54,0,0,0-.92,1.31l0,.1h-.11l-.41,0,.15-.1-1.19,3.7c-.42,1.23-.75,2.48-1.1,3.73s-.71,2.5-1.16,3.72L19.7,69.26h0a3.07,3.07,0,0,0-.06,2.45A2.94,2.94,0,0,0,21.42,73.41Zm0,0a3.09,3.09,0,0,1-1.85-1.71,3.2,3.2,0,0,1,0-2.52h0l1.22-3.69c.43-1.23.76-2.48,1.11-3.72s.66-2.52,1.06-3.75l1.15-3.71,0-.11h.12l.4,0-.14.1a2.77,2.77,0,0,1,1-1.47,3,3,0,0,1,1.72-.48,8.6,8.6,0,0,1,3.39.84h0c3.08.95,6.13,1.95,9.17,3l9.13,3q9.12,3.06,18.27,6l-.2,0a7.16,7.16,0,0,1,4.51-1.52,8,8,0,0,1,4.52,1.51,7.13,7.13,0,0,1,2.76,3.87A8.21,8.21,0,0,1,78.72,74a6.83,6.83,0,0,1-3.06,3.61,8.64,8.64,0,0,1-4.6,1.16,7.37,7.37,0,0,1-4.46-1.58A6.52,6.52,0,0,1,65,75.34a8.28,8.28,0,0,1-.85-2.23l.09.11-33.4-11,.06,0L27.72,72.3v0h-.13l0,0a2.91,2.91,0,0,1-1,1.49,3,3,0,0,1-1.72.51A8.59,8.59,0,0,1,21.41,73.46Z"/><path class="cls-2" d="M21.38,73.53a3.13,3.13,0,0,1-1.91-1.72,3.37,3.37,0,0,1,0-2.59l1.62-5c.59-1.65,1.21-3.3,1.85-4.93l1.72-5,.05.07-.41,0h-.07l0-.07a3,3,0,0,1,2.88-2.24,8.83,8.83,0,0,1,3.75.82l-.05.16-.09,0,0-.16,4.6,1.37,4.57,1.44,9.11,3,18.19,6,.62.21-.64.13-.3.06-.76.16.62-.47a7.76,7.76,0,0,1,4.83-1.52,8.59,8.59,0,0,1,4.8,1.64A7.7,7.7,0,0,1,79.35,69a8.79,8.79,0,0,1,0,5.08A7.44,7.44,0,0,1,76.11,78a9.16,9.16,0,0,1-4.92,1.32,8,8,0,0,1-4.82-1.63,7.06,7.06,0,0,1-1.72-1.93,8.78,8.78,0,0,1-1-2.39l-.22-.9.62.68.15.17.61.66L64,73.69C58.47,71.83,52.93,70,47.43,68.12L30.88,62.47l-.28-.1.27-.13.09-.05.27-.13-.1.28-3.49,10-.05-.09h.18l0,.08a3.11,3.11,0,0,1-1.05,1.52,3,3,0,0,1-1.76.54A8.64,8.64,0,0,1,21.38,73.53Zm0,0a8.58,8.58,0,0,0,3.54.83,2.68,2.68,0,0,0,2.68-2l.06.08h-.19l0-.08,3.38-10,.17.15-.09.05,0-.23L47.57,67.7c5.54,1.8,11,3.69,16.58,5.54l-.25.38-.15-.16.4-.22A8.45,8.45,0,0,0,65,75.51a6.83,6.83,0,0,0,1.61,1.82,7.51,7.51,0,0,0,4.55,1.53,8.54,8.54,0,0,0,4.68-1.24,7,7,0,0,0,3-3.7,8.4,8.4,0,0,0,0-4.84,7.37,7.37,0,0,0-2.79-3.92,8.24,8.24,0,0,0-4.58-1.58A7.4,7.4,0,0,0,67,65l-.14-.31.3-.06,0,.34L49,58.89l-9.09-3L35.3,54.41,30.72,53l0-.16.09,0-.06.16a8.71,8.71,0,0,0-3.68-.83,2.85,2.85,0,0,0-2.77,2.13l-.05-.07.4,0h.08l0,.07-1.73,5q-1,2.46-1.87,4.92l-1.63,5a3.27,3.27,0,0,0,0,2.53A3.07,3.07,0,0,0,21.4,73.48Z"/><path class="cls-2" d="M71.43,67.77A3.56,3.56,0,0,1,74,68.7a3.72,3.72,0,0,1,1.09,2.56,3.81,3.81,0,0,1-1,2.64A3.72,3.72,0,0,1,71.46,75a3.67,3.67,0,0,1-2.7-1,3.84,3.84,0,0,1-1.09-2.69,3.57,3.57,0,0,1,1.14-2.62A3.75,3.75,0,0,1,71.43,67.77Zm0,0a3.25,3.25,0,0,0-2.43,1,3.5,3.5,0,0,0-.83,2.42,3.6,3.6,0,0,0,.94,2.35,3.2,3.2,0,0,0,2.34,1,3.39,3.39,0,0,0,2.41-.91,3.65,3.65,0,0,0,.06-4.89A3.22,3.22,0,0,0,71.43,67.82Z"/><path class="cls-2" d="M71.43,67.89a2.65,2.65,0,0,0-2.07,1,3.45,3.45,0,0,0-.57,2.25,3.24,3.24,0,0,0,.89,2.09,2.71,2.71,0,0,0,2.1.7,2.59,2.59,0,0,0,1.93-1,3.35,3.35,0,0,0,.61-2.12,3.41,3.41,0,0,0-.76-2.11A2.73,2.73,0,0,0,71.43,67.89Zm0,0a3.2,3.2,0,0,1,2.32.73,3.38,3.38,0,0,1,1.07,2.27,3.48,3.48,0,0,1-.73,2.44,3,3,0,0,1-2.29,1.09,3.06,3.06,0,0,1-2.35-.87,3.43,3.43,0,0,1-.91-2.31,3.58,3.58,0,0,1,.74-2.32A3,3,0,0,1,71.43,67.84Z"/></g></g></svg>